<svg version="1.1" preserveAspectRatio="none" xmlns="http://www.w3.org/2000/svg" width="500" height="500" viewBox="0 0 500 500"><rect width="100%" height="100%" fill="#FFFFFF" fill-opacity="1"/><svg viewBox="133.4366 154.7749 253.3601 186" width="333" height="244.46627547115745" x="83.5px" y="127.7669px" xmlns="http://www.w3.org/2000/svg" xmlns:xlink="http://www.w3.org/1999/xlink" preserveAspectRatio="none"><defs></defs><style>.companyName {fill:#0C0C0C;fill-opacity:1;}.icon3 {fill:#0C0C0C;fill-opacity:1;}.icon3-str {stroke:#0C0C0C;stroke-opacity:1;}.text {fill:#0C0C0C;fill-opacity:1;}</style><g opacity="1" transform="rotate(0 168.1142 164.7749)">
<svg width="218.6825" height="120" x="168.1142" y="164.7749" version="1.1" preserveAspectRatio="none" viewBox="3.92 -22.84 98.47999999999999 54.04">
  <g transform="matrix(1 0 0 1 0 0)" class="companyName"><path id="id-D6z1nYkh8" d="M16.76-2.80L17.24-2.80Q18.56-2.12 18.56-0.84L18.56-0.84Q18.56 0 18.14 0.36Q17.72 0.72 16.94 0.86Q16.16 1 15 1.02Q13.84 1.04 12.40 1.12L12.40 1.12Q11.92 0.96 8.88 0.80L8.88 0.80Q8.44 0.84 8.04 0.86Q7.64 0.88 7.28 0.88L7.28 0.88Q5.12 0.88 4.32 0.24L4.32 0.24Q4.12-1.36 4.02-2.72Q3.92-4.08 3.92-5.20L3.92-5.20Q3.92-6.96 4.06-8.26Q4.20-9.56 4.20-10.60L4.20-10.60Q4.20-11.88 4.08-12.60L4.08-12.60L4.32-16.80Q4.48-18.32 4.70-19.40Q4.92-20.48 5.24-21.04L5.24-21.04Q5.48-21.36 7.64-21.84L7.64-21.84L10.20-22.40Q10.44-22.44 11.20-22.52Q11.96-22.60 12.78-22.68Q13.60-22.76 14.24-22.80Q14.88-22.84 14.84-22.84L14.84-22.84L15-22.84Q15.44-22.84 15.90-22.24Q16.36-21.64 16.36-20.84L16.36-20.84Q16.36-20.44 16.34-20.12Q16.32-19.80 16.08-19.58Q15.84-19.36 15.28-19.24Q14.72-19.12 13.64-19.08L13.64-19.08Q11.88-19 11.24-18.72L11.24-18.72L11.04-18.72Q10-18.72 8.44-18.24L8.44-18.24Q8.28-18.04 8.20-17.54Q8.12-17.04 8.08-16.50Q8.04-15.96 8.02-15.58Q8-15.20 8-15.32L8-15.32Q7.96-15.12 7.94-14.92Q7.92-14.72 7.92-14.40L7.92-14.40Q7.92-14.12 7.94-13.78Q7.96-13.44 8-13.04L8-13.04Q9.24-13.16 10.02-13.30Q10.80-13.44 11.24-13.44L11.24-13.44Q12.08-13.44 12.88-13.48Q13.68-13.52 14.30-13.38Q14.92-13.24 15.28-12.82Q15.64-12.40 15.64-11.48L15.64-11.48Q15.64-10.44 14.98-10.12Q14.32-9.80 12.68-9.76L12.68-9.76Q10.76-9.68 10.36-9.60L10.36-9.60Q10.12-9.60 9.86-9.62Q9.60-9.64 9.28-9.64L9.28-9.64Q9.08-9.64 8.82-9.66Q8.56-9.68 8.32-9.66Q8.08-9.64 7.90-9.50Q7.72-9.36 7.72-9L7.72-9Q7.72-8.76 7.74-8.38Q7.76-8 7.76-7.68L7.76-7.68Q7.76-7.20 7.74-6.72Q7.72-6.24 7.70-5.70Q7.68-5.16 7.66-4.48Q7.64-3.80 7.64-2.88L7.64-2.88Q7.88-2.84 8.58-2.80Q9.28-2.76 10.06-2.72Q10.84-2.68 11.56-2.62Q12.28-2.56 12.52-2.52L12.52-2.52Q12.56-2.52 13.08-2.56Q13.60-2.60 14.60-2.68L14.60-2.68Q15.96-2.80 16.76-2.80L16.76-2.80Z M38.68-1.44L38.68-1.44Q38.68-0.72 38.04-0.10Q37.40 0.52 36.76 0.52L36.76 0.52Q36.44 0.52 36.24 0.32L36.24 0.32Q36.20 0.32 35.88-0.08Q35.56-0.48 35.12-1.08Q34.68-1.68 34.16-2.36Q33.64-3.04 33.20-3.64Q32.76-4.24 32.50-4.62Q32.24-5 32.28-4.96L32.28-4.96Q32.20-5.20 31.88-5.72Q31.56-6.24 31.18-6.82Q30.80-7.40 30.48-7.90Q30.16-8.40 30.12-8.52L30.12-8.52Q30.04-8.52 29.68-8.46Q29.32-8.40 28.88-8.34Q28.44-8.28 27.98-8.22Q27.52-8.16 27.28-8.16L27.28-8.16L27.08-8.16Q26.96-6.92 26.88-6.12Q26.80-5.32 26.80-4.92L26.80-4.92L26.80-3.68Q26.80-1.52 26.44 1L26.44 1Q25.96 1.72 25.04 1.72L25.04 1.72Q24.24 1.72 23.66 1.30Q23.08 0.88 23.08-0.16L23.08-0.16Q23.08-0.48 23.10-0.94Q23.12-1.40 23.14-1.88Q23.16-2.36 23.18-2.74Q23.20-3.12 23.20-3.24L23.20-3.24L23.20-3.44L23.48-9.48Q23.52-10 23.50-10.76Q23.48-11.52 23.56-12.52L23.56-12.52L23.88-14.92Q24.12-16.16 24.12-17.04L24.12-17.04Q24.12-17.32 24.10-17.58Q24.08-17.84 24.04-18.12L24.04-18.12Q24.04-18.12 24.16-19.52L24.16-19.52Q24.20-20.48 24.52-21.08Q24.84-21.68 26.04-21.68L26.04-21.68Q26.88-21.68 27.72-21.40L27.72-21.40Q28.52-21.48 29.14-21.48Q29.76-21.48 30.20-21.48L30.20-21.48Q30.60-21.48 30.92-21.46Q31.24-21.44 31.56-21.38Q31.88-21.32 32.28-21.22Q32.68-21.12 33.24-20.96L33.24-20.96L35-19.76Q36.48-18.60 36.98-17.44Q37.48-16.28 37.48-15L37.48-15Q37.48-14.12 37.42-13.50Q37.36-12.88 37-12.28Q36.64-11.68 35.88-11.04Q35.12-10.40 33.72-9.44L33.72-9.44Q34.64-8.28 35.80-6L35.80-6Q36.52-5.44 38.68-1.44ZM33.76-14.20L33.76-14.20Q33.80-14.36 33.80-14.64L33.80-14.64Q33.80-15.04 33.72-15.46Q33.64-15.88 33.36-16.30Q33.08-16.72 32.54-17.14Q32-17.56 31.04-17.96L31.04-17.96Q30.20-18.28 29.64-18.28L29.64-18.28Q29.48-18.24 29.20-18.20L29.20-18.20Q28.96-18.12 28.60-18.06Q28.24-18 27.80-17.92L27.80-17.92Q27.84-17.68 27.84-17.46Q27.84-17.24 27.78-16.64Q27.72-16.04 27.60-14.92Q27.48-13.80 27.32-11.80L27.32-11.80Q27.48-11.76 27.64-11.76Q27.80-11.76 27.96-11.76L27.96-11.76Q28.72-11.76 29.66-11.98Q30.60-12.20 31.44-12.54Q32.28-12.88 32.92-13.32Q33.56-13.76 33.76-14.20Z M59.20-1.44L59.20-1.44Q59.20-0.72 58.56-0.10Q57.92 0.52 57.28 0.52L57.28 0.52Q56.96 0.52 56.76 0.32L56.76 0.32Q56.72 0.32 56.40-0.08Q56.08-0.48 55.64-1.08Q55.20-1.68 54.68-2.36Q54.16-3.04 53.72-3.64Q53.28-4.24 53.02-4.62Q52.76-5 52.80-4.96L52.80-4.96Q52.72-5.20 52.40-5.72Q52.08-6.24 51.70-6.82Q51.32-7.40 51.00-7.90Q50.68-8.40 50.64-8.52L50.64-8.52Q50.56-8.52 50.20-8.46Q49.84-8.40 49.40-8.34Q48.96-8.28 48.50-8.22Q48.04-8.16 47.80-8.16L47.80-8.16L47.60-8.16Q47.48-6.92 47.40-6.12Q47.32-5.32 47.32-4.92L47.32-4.92L47.32-3.68Q47.32-1.52 46.96 1L46.96 1Q46.48 1.72 45.56 1.72L45.56 1.72Q44.76 1.72 44.18 1.30Q43.60 0.88 43.60-0.16L43.60-0.16Q43.60-0.48 43.62-0.94Q43.64-1.40 43.66-1.88Q43.68-2.36 43.70-2.74Q43.72-3.12 43.72-3.24L43.72-3.24L43.72-3.44L44.00-9.48Q44.04-10 44.02-10.76Q44.00-11.52 44.08-12.52L44.08-12.52L44.40-14.92Q44.64-16.16 44.64-17.04L44.64-17.04Q44.64-17.32 44.62-17.58Q44.60-17.84 44.56-18.12L44.56-18.12Q44.56-18.12 44.68-19.52L44.68-19.52Q44.72-20.48 45.04-21.08Q45.36-21.68 46.56-21.68L46.56-21.68Q47.40-21.68 48.24-21.40L48.24-21.40Q49.04-21.48 49.66-21.48Q50.28-21.48 50.72-21.48L50.72-21.48Q51.12-21.48 51.44-21.46Q51.76-21.44 52.08-21.38Q52.40-21.32 52.80-21.22Q53.20-21.12 53.76-20.96L53.76-20.96L55.52-19.76Q57-18.60 57.50-17.44Q58-16.28 58-15L58-15Q58-14.12 57.94-13.50Q57.88-12.88 57.52-12.28Q57.16-11.68 56.40-11.04Q55.64-10.40 54.24-9.44L54.24-9.44Q55.16-8.28 56.32-6L56.32-6Q57.04-5.44 59.20-1.44ZM54.28-14.20L54.28-14.20Q54.32-14.36 54.32-14.64L54.32-14.64Q54.32-15.04 54.24-15.46Q54.16-15.88 53.88-16.30Q53.60-16.72 53.06-17.14Q52.52-17.56 51.56-17.96L51.56-17.96Q50.72-18.28 50.16-18.28L50.16-18.28Q50.00-18.24 49.72-18.20L49.72-18.20Q49.48-18.12 49.12-18.06Q48.76-18 48.32-17.92L48.32-17.92Q48.36-17.68 48.36-17.46Q48.36-17.24 48.30-16.64Q48.24-16.04 48.12-14.92Q48.00-13.80 47.84-11.80L47.84-11.80Q48.00-11.76 48.16-11.76Q48.32-11.76 48.48-11.76L48.48-11.76Q49.24-11.76 50.18-11.98Q51.12-12.20 51.96-12.54Q52.80-12.88 53.44-13.32Q54.08-13.76 54.28-14.20Z M81.12-10.64L81.04-7.84Q80.52-5.76 78.08-3.04L78.08-3.04Q77.76-2.92 77.26-2.56Q76.76-2.20 75.98-1.82Q75.20-1.44 74.08-1.16Q72.96-0.88 71.44-0.88L71.44-0.88Q68.40-0.88 66.36-2.50Q64.32-4.12 63.20-7.60L63.20-7.60Q63.16-7.88 63.16-8.16Q63.16-8.44 63.16-8.76L63.16-8.76Q63.16-11.24 63.68-13.14Q64.20-15.04 65.08-16.44Q65.96-17.84 67.10-18.80Q68.24-19.76 69.48-20.36L69.48-20.36Q71.52-20.92 73.48-20.92L73.48-20.92Q74.88-20.92 76.24-20.20Q77.60-19.48 78.66-18.16Q79.72-16.84 80.38-14.94Q81.04-13.04 81.12-10.64L81.12-10.64ZM77.36-7.96L77.36-7.96Q77.64-9.60 77.64-10.52L77.64-10.52Q77.64-12.04 77.20-13.32Q76.76-14.60 76.16-15.54Q75.56-16.48 74.90-17.02Q74.24-17.56 73.80-17.56L73.80-17.56Q71.68-17.56 70.34-16.62Q69.00-15.68 68.24-14.36Q67.48-13.04 67.20-11.60Q66.92-10.16 66.92-9.16L66.92-9.16Q66.92-8.24 67.22-7.38Q67.52-6.52 68.10-5.86Q68.68-5.20 69.48-4.80Q70.28-4.40 71.32-4.40L71.32-4.40Q73.76-4.40 75.16-5.30Q76.56-6.20 77.36-7.96Z M102.40-1.44L102.40-1.44Q102.40-0.72 101.76-0.10Q101.12 0.52 100.48 0.52L100.48 0.52Q100.16 0.52 99.96 0.32L99.96 0.32Q99.92 0.32 99.60-0.08Q99.28-0.48 98.84-1.08Q98.40-1.68 97.88-2.36Q97.36-3.04 96.92-3.64Q96.48-4.24 96.22-4.62Q95.96-5 96-4.96L96-4.96Q95.92-5.20 95.60-5.72Q95.28-6.24 94.90-6.82Q94.52-7.40 94.20-7.90Q93.88-8.40 93.84-8.52L93.84-8.52Q93.76-8.52 93.40-8.46Q93.04-8.40 92.60-8.34Q92.16-8.28 91.70-8.22Q91.24-8.16 91-8.16L91-8.16L90.80-8.16Q90.68-6.92 90.60-6.12Q90.52-5.32 90.52-4.92L90.52-4.92L90.52-3.68Q90.52-1.52 90.16 1L90.16 1Q89.68 1.72 88.76 1.72L88.76 1.72Q87.96 1.72 87.38 1.30Q86.80 0.88 86.80-0.16L86.80-0.16Q86.80-0.48 86.82-0.94Q86.84-1.40 86.86-1.88Q86.88-2.36 86.90-2.74Q86.92-3.12 86.92-3.24L86.92-3.24L86.92-3.44L87.20-9.48Q87.24-10 87.22-10.76Q87.20-11.52 87.28-12.52L87.28-12.52L87.60-14.92Q87.84-16.16 87.84-17.04L87.84-17.04Q87.84-17.32 87.82-17.58Q87.80-17.84 87.76-18.12L87.76-18.12Q87.76-18.12 87.88-19.52L87.88-19.52Q87.92-20.48 88.24-21.08Q88.56-21.68 89.76-21.68L89.76-21.68Q90.60-21.68 91.44-21.40L91.44-21.40Q92.24-21.48 92.86-21.48Q93.48-21.48 93.92-21.48L93.92-21.48Q94.32-21.48 94.64-21.46Q94.96-21.44 95.28-21.38Q95.60-21.32 96-21.22Q96.40-21.12 96.96-20.96L96.96-20.96L98.72-19.76Q100.20-18.60 100.70-17.44Q101.20-16.28 101.20-15L101.20-15Q101.20-14.12 101.14-13.50Q101.08-12.88 100.72-12.28Q100.36-11.68 99.60-11.04Q98.84-10.40 97.44-9.44L97.44-9.44Q98.36-8.28 99.52-6L99.52-6Q100.24-5.44 102.40-1.44ZM97.48-14.20L97.48-14.20Q97.52-14.36 97.52-14.64L97.52-14.64Q97.52-15.04 97.44-15.46Q97.36-15.88 97.08-16.30Q96.80-16.72 96.26-17.14Q95.72-17.56 94.76-17.96L94.76-17.96Q93.92-18.28 93.36-18.28L93.36-18.28Q93.20-18.24 92.92-18.20L92.92-18.20Q92.68-18.12 92.32-18.06Q91.96-18 91.52-17.92L91.52-17.92Q91.56-17.68 91.56-17.46Q91.56-17.24 91.50-16.64Q91.44-16.04 91.32-14.92Q91.20-13.80 91.04-11.80L91.04-11.80Q91.20-11.76 91.36-11.76Q91.52-11.76 91.68-11.76L91.68-11.76Q92.44-11.76 93.38-11.98Q94.32-12.20 95.16-12.54Q96-12.88 96.64-13.32Q97.28-13.76 97.48-14.20Z M21.52 22.88L21.52 22.88Q21.44 22.92 17.68 23.04L17.68 23.04Q17.48 24.88 17.22 26.24Q16.96 27.60 16.64 28.52L16.64 28.52Q16.24 28.92 15.36 28.92L15.36 28.92Q13.72 28.92 13.44 28.08L13.44 28.08Q13.44 26.52 14.08 23.20L14.08 23.20Q12.64 23.20 12.08 23.18Q11.52 23.16 11.18 23.16Q10.84 23.16 10.34 23.14Q9.84 23.12 8.52 23.12L8.52 23.12Q8.08 23.12 7.42 22.98Q6.76 22.84 6.10 22.62Q5.44 22.40 4.86 22.16Q4.28 21.92 4.04 21.68L4.04 21.68Q3.92 21.32 3.92 20.84L3.92 20.84Q3.92 19.60 4.68 17.96L4.68 17.96Q5.44 16.96 6.72 13.64L6.72 13.64L10.04 8.52Q10.44 8.16 11.12 8.16L11.12 8.16Q12.80 8.16 12.80 9.56L12.80 9.56Q12.80 9.60 12.60 10.08Q12.40 10.56 12.02 11.36Q11.64 12.16 11.08 13.18Q10.52 14.20 9.80 15.28L9.80 15.28L7.84 19.84Q7.96 19.96 8.20 19.96L8.20 19.96Q8.52 19.96 8.68 19.86Q8.84 19.76 8.84 19.80L8.84 19.80Q9.04 19.76 9.26 19.74Q9.48 19.72 9.72 19.72L9.72 19.72Q10.16 19.72 10.66 19.78Q11.16 19.84 11.76 19.92L11.76 19.92Q12.88 19.92 14.40 19.80L14.40 19.80L14.64 16.72Q14.60 16.36 14.58 16Q14.56 15.64 14.56 15.28L14.56 15.28Q14.56 14.40 14.70 13.60Q14.84 12.80 14.84 11.88L14.84 11.88Q14.84 11.64 14.80 11.02Q14.76 10.40 14.70 9.72Q14.64 9.04 14.60 8.48Q14.56 7.92 14.56 7.84L14.56 7.84Q14.96 6.84 15.92 6.84L15.92 6.84Q16.08 6.88 16.24 6.88L16.24 6.88Q16.40 6.92 16.64 6.92Q16.88 6.92 17.20 6.96L17.20 6.96Q17.32 7.12 17.50 7.70Q17.68 8.28 17.84 9.02Q18 9.76 18.12 10.54Q18.24 11.32 18.24 11.88L18.24 11.88Q18.24 12.48 18.20 13.28Q18.16 14.08 18.12 15.36L18.12 15.36Q18.16 15.52 18.16 16.12L18.16 16.12Q18.16 16.68 18.12 17.56Q18.08 18.44 18 19.64L18 19.64L18.40 19.64Q18.96 19.64 19.66 19.70Q20.36 19.76 21.28 19.84L21.28 19.84Q22.12 20.08 22.12 21.40L22.12 21.40Q22.12 22.36 21.52 22.88Z M42.60 16.60L42.60 16.60Q42.52 17.48 42.20 18.62Q41.88 19.76 41.46 20.90Q41.04 22.04 40.54 23.04Q40.04 24.04 39.56 24.64L39.56 24.64L37.20 26.28Q35.68 27.12 34.08 27.12L34.08 27.12Q32.44 27.12 31.06 26.26Q29.68 25.40 28.66 23.98Q27.64 22.56 27.06 20.78Q26.48 19 26.48 17.12L26.48 17.12Q26.48 14.96 27.38 13.12Q28.28 11.28 30.44 9.48L30.44 9.48Q31.48 8.60 32.44 8.16Q33.40 7.72 34.22 7.54Q35.04 7.36 35.68 7.34Q36.32 7.32 36.76 7.32L36.76 7.32Q38.28 7.32 39.32 7.80Q40.36 8.28 41.04 9.36Q41.72 10.44 42.08 12.22Q42.44 14 42.60 16.60ZM38.56 18.88L38.56 18.88Q39.08 17.44 39.08 15.76L39.08 15.76Q39.08 14.88 38.92 13.98Q38.76 13.08 38.44 12.36Q38.12 11.64 37.62 11.18Q37.12 10.72 36.48 10.72L36.48 10.72Q35.36 10.72 34.22 11.12Q33.08 11.52 32.18 12.30Q31.28 13.08 30.72 14.26Q30.16 15.44 30.16 17L30.16 17Q30.20 17.48 30.22 18.04Q30.24 18.60 30.40 19.24L30.40 19.24L30.80 20.88Q32.28 23.56 34.16 23.56L34.16 23.56Q35.52 23.56 36.66 22.30Q37.80 21.04 38.56 18.88Z M61.12 27.68L61.12 27.68Q60.52 28.44 59.40 29.08Q58.28 29.72 56.98 30.20Q55.68 30.68 54.40 30.94Q53.12 31.20 52.16 31.20L52.16 31.20Q50.80 31.20 50.24 30.74Q49.68 30.28 49.68 29.36L49.68 29.36Q49.68 28.64 50.12 28.28Q50.56 27.92 51.24 27.76Q51.92 27.60 52.72 27.58Q53.52 27.56 54.24 27.48L54.24 27.48Q55.48 27.24 56.60 26.54Q57.72 25.84 58.56 25.02Q59.40 24.20 59.90 23.40Q60.40 22.60 60.40 22.12L60.40 22.12Q60.52 21 60.52 20.56L60.52 20.56Q60.52 19.16 59.82 18.58Q59.12 18 57.84 18L57.84 18Q56.92 18 54.52 18.60L54.52 18.60Q53.08 18.24 53.08 16.36L53.08 16.36Q53.20 16.16 53.68 15.82Q54.16 15.48 54.76 15.10Q55.36 14.72 55.94 14.36Q56.52 14 56.80 13.68L56.80 13.68Q58.32 11.96 58.28 10.80L58.28 10.80Q58.24 10.12 57.68 9.80Q57.12 9.48 56.16 9.48L56.16 9.48Q55.84 9.48 55.56 9.48Q55.28 9.48 54.98 9.60Q54.68 9.72 54.26 9.98Q53.84 10.24 53.24 10.76L53.24 10.76Q52.40 11.48 52 11.98Q51.60 12.48 51.34 12.80Q51.08 13.12 50.82 13.26Q50.56 13.40 50 13.40L50 13.40Q48.36 13.40 48.36 11.48L48.36 11.48Q48.36 10.88 48.86 10.12Q49.36 9.36 50.10 8.64Q50.84 7.92 51.70 7.30Q52.56 6.68 53.28 6.28L53.28 6.28Q54.36 5.88 56.04 5.88L56.04 5.88Q56.88 5.88 57.40 5.86Q57.92 5.84 58.28 5.90Q58.64 5.96 58.98 6.12Q59.32 6.28 59.88 6.64L59.88 6.64Q60.64 7.08 61.08 7.58Q61.52 8.08 61.72 8.66Q61.92 9.24 61.96 9.84Q62 10.44 62 11.04L62 11.04Q62 11.52 61.68 12.38Q61.36 13.24 60.44 14.88L60.44 14.88Q61.68 15.36 62.48 15.94Q63.28 16.52 63.70 17.18Q64.12 17.84 64.28 18.60Q64.44 19.36 64.44 20.20L64.44 20.20Q64.44 23.52 61.12 27.68Z"/></g>
</svg>
</g><g opacity="1" transform="rotate(0 168.1142 304.7749)">
<svg width="182.1869" height="26" x="168.1142" y="304.7749" version="1.1" preserveAspectRatio="none" viewBox="4 -23.904 182.4 26.024">
  <g transform="matrix(1 0 0 1 0 0)" class="text"><path id="id-D-YM9nyY49" d="M18.64-19L18.64-19Q18.72-18.76 18.72-18.48L18.72-18.48Q18.72-16.88 17.68-16.88L17.68-16.88Q17.56-16.88 17.08-17.02Q16.60-17.16 16.04-17.30Q15.48-17.44 14.92-17.58Q14.36-17.72 14-17.72L14-17.72L13.64-17.72Q12.28-18.04 11.04-18.20Q9.80-18.36 8.64-18.36L8.64-18.36Q8.36-18.36 8.10-18.34Q7.84-18.32 7.60-18.32L7.60-18.32Q7.36-17.56 7.22-16.82Q7.08-16.08 7.08-15.28L7.08-15.28L7.08-15Q7.04-14.56 7.02-14.04Q7-13.52 7-12.96L7-12.96Q7-12.56 7-12.12Q7-11.68 7.04-11.24L7.04-11.24L10.76-11.32Q10.80-11.32 11.30-11.36Q11.80-11.40 12.44-11.46Q13.08-11.52 13.76-11.56Q14.44-11.60 14.88-11.60L14.88-11.60Q15.56-11.60 15.88-11.24Q16.20-10.88 16.20-10.32L16.20-10.32Q16.20-9.72 15.88-9.44Q15.56-9.16 14.92-9.04Q14.28-8.92 13.30-8.90Q12.32-8.88 11-8.76L11-8.76L10.24-8.76Q9.60-8.76 8.80-8.72Q8-8.68 7.08-8.60L7.08-8.60L7.08-4Q7.04-3.68 7.04-3.42Q7.04-3.16 7.04-2.92L7.04-2.92Q7.04-1.04 7.52 0.08L7.52 0.08Q7.44 1.40 6.32 1.40L6.32 1.40Q5.52 1.40 4.88 0.52L4.88 0.52L4.36-1.72Q4.20-2.56 4.12-3.40Q4.04-4.24 4.04-5.08L4.04-5.08Q4.04-5.72 4.06-6.44Q4.08-7.16 4.08-8L4.08-8Q4.08-9 4.08-10.14Q4.08-11.28 4-12.56L4-12.56Q4.12-18.40 5.32-20.76L5.32-20.76Q5.56-21 6.60-21L6.60-21Q6.76-21 7.22-20.96Q7.68-20.92 8.20-20.88Q8.72-20.84 9.20-20.80Q9.68-20.76 9.92-20.76L9.92-20.76Q10.04-20.76 10.10-20.78Q10.16-20.80 10.28-20.80L10.28-20.80Q10.92-20.80 13.56-20.20L13.56-20.20Q17.40-20.12 18.64-19Z M40.32-10.56L40.24-7.68Q39.72-5.68 37.32-3.04L37.32-3.04Q36.96-2.88 36.46-2.52Q35.96-2.16 35.18-1.80Q34.40-1.44 33.30-1.16Q32.20-0.88 30.64-0.88L30.64-0.88Q27.64-0.88 25.56-2.48Q23.48-4.08 22.40-7.52L22.40-7.52Q22.36-7.80 22.36-8.08Q22.36-8.36 22.36-8.68L22.36-8.68Q22.36-11.32 22.90-13.26Q23.44-15.20 24.34-16.58Q25.24-17.96 26.36-18.88Q27.48-19.80 28.68-20.36L28.68-20.36Q30.80-20.92 32.68-20.92L32.68-20.92Q34.12-20.92 35.48-20.18Q36.84-19.44 37.88-18.10Q38.92-16.76 39.58-14.84Q40.24-12.92 40.32-10.56L40.32-10.56ZM37.48-7.60L37.48-7.60Q37.64-8.60 37.70-9.30Q37.76-10 37.76-10.44L37.76-10.44Q37.76-12.12 37.28-13.60Q36.80-15.08 36.12-16.18Q35.44-17.28 34.62-17.92Q33.80-18.56 33.16-18.56L33.16-18.56Q30.68-18.56 28.86-17.44Q27.04-16.32 26.32-14.32L26.32-14.32Q25.16-11.08 25.16-9.04L25.16-9.04Q25.16-7.96 25.52-6.94Q25.88-5.92 26.56-5.14Q27.24-4.36 28.20-3.88Q29.16-3.40 30.32-3.40L30.32-3.40Q32.04-3.40 33.22-3.72Q34.40-4.04 35.22-4.60Q36.04-5.16 36.56-5.92Q37.08-6.68 37.48-7.60Z M60.40-3.24L61.60-0.96Q61.60-0.48 61.16-0.10Q60.72 0.28 60.28 0.28L60.28 0.28Q60.16 0.28 60.06 0.34Q59.96 0.40 59.76 0.24Q59.56 0.08 59.12-0.42Q58.68-0.92 57.92-2.04L57.92-2.04L55.84-5.04Q55.76-5.28 55.40-5.84Q55.04-6.40 54.62-7.06Q54.20-7.72 53.82-8.30Q53.44-8.88 53.40-9.12L53.40-9.12Q53.24-9.12 52.76-9.06Q52.28-9 51.72-8.94Q51.16-8.88 50.62-8.82Q50.08-8.76 49.84-8.76L49.84-8.76Q49.64-8.76 49.48-8.76Q49.32-8.76 49.16-8.80L49.16-8.80Q49-6.60 48.92-5.52Q48.84-4.44 48.84-4.52L48.84-4.52Q48.88-4.20 48.88-3.86Q48.88-3.52 48.88-3.16L48.88-3.16Q48.88-2.12 48.78-1.04Q48.68 0.04 48.48 1.20L48.48 1.20Q48.16 1.68 47.52 1.68L47.52 1.68Q46.92 1.68 46.46 1.34Q46 1 46 0.20L46 0.20Q46-0.08 46.02-0.58Q46.04-1.08 46.08-1.56Q46.12-2.04 46.14-2.44Q46.16-2.84 46.16-3L46.16-3L46.16-3.24Q46.20-3.56 46.30-5.80Q46.40-8.04 46.56-12.64L46.56-12.64Q46.56-12.92 46.66-13.52Q46.76-14.12 46.88-14.82Q47-15.52 47.08-16.20Q47.16-16.88 47.16-17.36L47.16-17.36Q47.16-17.64 47.14-17.90Q47.12-18.16 47.08-18.44L47.08-18.44Q47.08-18.44 47.08-18.78Q47.08-19.12 47.14-19.62Q47.20-20.12 47.32-20.66Q47.44-21.20 47.64-21.52L47.64-21.52Q47.88-21.60 48.12-21.64Q48.36-21.68 48.68-21.68L48.68-21.68Q49.40-21.68 50.36-21.36L50.36-21.36Q51.20-21.44 51.86-21.44Q52.52-21.44 53-21.44L53-21.44Q53.40-21.44 53.72-21.42Q54.04-21.40 54.38-21.36Q54.72-21.32 55.12-21.22Q55.52-21.12 56.08-20.96L56.08-20.96L57.84-19.84Q59.24-18.80 59.76-17.66Q60.28-16.52 60.28-14.76L60.28-14.76Q60.20-14.08 60.14-13.64Q60.08-13.20 59.86-12.84Q59.64-12.48 59.22-12.08Q58.80-11.68 58.08-11.08L58.08-11.08Q57.44-10.52 56.94-10.22Q56.44-9.92 56.08-9.80L56.08-9.80Q56.12-9.60 56.50-9Q56.88-8.40 57.32-7.70Q57.76-7 58.12-6.38Q58.48-5.76 58.56-5.52L58.56-5.52Q59.24-5.24 60.40-3.24L60.40-3.24ZM57.48-14.32L57.48-14.32Q57.52-14.60 57.54-14.80Q57.56-15 57.56-15.20L57.56-15.20Q57.56-15.44 57.46-15.88Q57.36-16.32 57-16.82Q56.64-17.32 55.98-17.88Q55.32-18.44 54.20-18.92L54.20-18.92Q53.28-19.28 52.60-19.28L52.60-19.28Q52.36-19.28 52.04-19.22Q51.72-19.16 51.32-19.08L51.32-19.08L49.92-18.84Q49.92-18.04 49.90-17.70Q49.88-17.36 49.82-16.76Q49.76-16.16 49.64-15Q49.52-13.84 49.36-11.40L49.36-11.40Q49.84-11.24 50.56-11.24L50.56-11.24Q51.52-11.24 52.64-11.50Q53.76-11.76 54.76-12.18Q55.76-12.60 56.50-13.16Q57.24-13.72 57.48-14.32Z M83.68-6.96L83.68-6.96L83.68-6.68Q83.68-5.36 82.60-3.80Q81.52-2.24 78.88-0.76L78.88-0.76Q77.80-0.16 76.92 0.20Q76.04 0.56 75.14 0.82Q74.24 1.08 73.26 1.34Q72.28 1.60 71 2L71 2Q70.56 2.04 70.12 2.08L70.12 2.08Q69.76 2.12 69.38 2.12Q69 2.12 68.76 2.12L68.76 2.12Q68.12 2.12 67.78 1.96Q67.44 1.80 67.28 1.44Q67.12 1.08 67.08 0.46Q67.04-0.16 67.04-1.12L67.04-1.12Q67.04-1.64 67.12-2.04L67.12-2.04Q67-2.32 67-3.24L67-3.24Q67-4.72 67.06-5.78Q67.12-6.84 67.20-7.58Q67.28-8.32 67.34-8.88Q67.40-9.44 67.40-9.96L67.40-9.96Q67.40-10.48 67.38-11.06Q67.36-11.64 67.36-12.32L67.36-12.32L67.80-18.20Q67.76-18.52 67.60-19.08Q67.44-19.64 67.26-20.16Q67.08-20.68 66.92-21.06Q66.76-21.44 66.76-21.40L66.76-21.40Q66.76-21.56 66.90-21.82Q67.04-22.08 67.36-22.32Q67.68-22.56 68.18-22.74Q68.68-22.92 69.44-22.92L69.44-22.92L69.64-22.92Q71.68-23.88 73.60-23.88L73.60-23.88Q73.76-23.88 74.12-23.90Q74.48-23.92 74.98-23.84Q75.48-23.76 76.10-23.50Q76.72-23.24 77.44-22.68L77.44-22.68L78.96-21.44L79.52-20.36Q79.92-19.60 79.92-18.80L79.92-18.80Q79.92-16.76 77.88-14.72L77.88-14.72Q78.28-14.60 78.94-14.30Q79.60-14 80.26-13.66Q80.92-13.32 81.44-13.04Q81.96-12.76 82.08-12.64L82.08-12.64Q82.64-12 83.04-10.40Q83.44-8.80 83.68-6.96ZM76.96-19.56L76.96-19.56Q76.92-19.72 76.68-20.08Q76.44-20.44 76.02-20.76Q75.60-21.08 75.04-21.34Q74.48-21.60 73.80-21.60L73.80-21.60Q71.40-21.60 70.48-20.68L70.48-20.68Q70.40-20.36 70.38-19.96Q70.36-19.56 70.34-19Q70.32-18.44 70.28-17.68Q70.24-16.92 70.08-15.92L70.08-15.92Q70-15.36 69.98-15Q69.96-14.64 69.96-14.44L69.96-14.44Q69.96-14.16 70.04-14.08L70.04-14.08Q71.40-14.32 72.16-14.46Q72.92-14.60 73.36-14.76Q73.80-14.92 74.16-15.16Q74.52-15.40 75.12-15.88L75.12-15.88Q77.08-16.88 77.08-18.60L77.08-18.60Q77.08-19 76.96-19.56ZM80.72-5.88L80.72-5.88Q80.96-6.48 80.96-7.20L80.96-7.20Q80.96-8.44 80.64-9.32Q80.32-10.20 79.78-10.78Q79.24-11.36 78.50-11.74Q77.76-12.12 76.88-12.36L76.88-12.36Q75.60-12.72 75.04-12.72L75.04-12.72Q74.60-12.72 73.92-12.54Q73.24-12.36 72.50-12.14Q71.76-11.92 71.08-11.72Q70.40-11.52 70-11.48L70-11.48Q70.04-11.16 70.04-10.82Q70.04-10.48 70.04-10.12L70.04-10.12Q70.04-8.80 69.82-7.24Q69.60-5.68 69.60-3.72L69.60-3.72Q69.60-3.16 69.64-2.58Q69.68-2 69.68-1.60L69.68-1.60Q69.68-1.32 69.66-1.10Q69.64-0.88 69.64-0.72L69.64-0.72Q69.84-0.68 70.08-0.66Q70.32-0.64 70.56-0.64L70.56-0.64Q71.12-0.64 72.04-0.88Q72.96-1.12 73.86-1.40Q74.76-1.68 75.48-1.94Q76.20-2.20 76.40-2.24L76.40-2.24Q77-2.48 77.68-2.92Q78.36-3.36 79-3.88Q79.64-4.40 80.10-4.92Q80.56-5.44 80.72-5.88Z M95.36-0.40L95.36-0.40Q94.76-0.36 94.32-0.32Q93.88-0.28 93.46-0.24Q93.04-0.20 92.54-0.14Q92.04-0.08 91.28 0L91.28 0Q91.04-0.08 90.92-0.08L90.92-0.08Q90.76-0.08 90.44 0.02Q90.12 0.12 89.88 0.12L89.88 0.12Q88.76 0.12 88.76-0.96L88.76-0.96Q88.76-1.44 88.98-1.70Q89.20-1.96 89.56-2.14Q89.92-2.32 90.44-2.44Q90.96-2.56 91.56-2.72L91.56-2.72L91.56-3.16Q91.56-4.44 91.80-6.48L91.80-6.48Q91.68-6.88 91.68-7.52L91.68-7.52Q91.68-8.96 91.78-9.86Q91.88-10.76 91.88-10.80L91.88-10.80Q91.88-11.52 91.72-11.80L91.72-11.80L91.72-12.84Q91.72-13.60 91.66-14.46Q91.60-15.32 91.54-16.08Q91.48-16.84 91.44-17.42Q91.40-18 91.40-18.24L91.40-18.24L91.40-18.44Q90.64-18.44 89.56-18.56L89.56-18.56Q89-19.36 89-19.92L89-19.92Q89-20.20 89.08-20.42Q89.16-20.64 89.46-20.78Q89.76-20.92 90.30-20.98Q90.84-21.04 91.80-21.04L91.80-21.04Q92.48-21.04 93.02-20.96Q93.56-20.88 93.92-20.76L93.92-20.76Q94.84-20.76 95.42-20.72Q96-20.68 96.32-20.58Q96.64-20.48 96.74-20.28Q96.84-20.08 96.84-19.76L96.84-19.76Q96.84-19 96.04-18.32L96.04-18.32Q95.84-18.32 95.62-18.34Q95.40-18.36 95.16-18.36L95.16-18.36Q94.92-18.36 94.64-18.34Q94.36-18.32 94.04-18.32L94.04-18.32Q94.16-17.80 94.20-17.20Q94.24-16.60 94.28-16.02Q94.32-15.44 94.34-14.94Q94.36-14.44 94.44-14.12L94.44-14.12L94.56-10.24Q94.52-9.28 94.52-8.54Q94.52-7.80 94.52-7.28L94.52-7.28Q94.52-6.16 94.56-6.04L94.56-6.04L94.32-2.80Q94.56-2.80 94.96-2.78Q95.36-2.76 95.72-2.64Q96.08-2.52 96.36-2.26Q96.64-2 96.64-1.52L96.64-1.52Q96.64-1.08 96.34-0.76Q96.04-0.44 95.36-0.40Z M120.76-12.44L120.76-12.44Q120.68-9 118.56-6.08L118.56-6.08Q117.92-5.36 117.18-4.42Q116.44-3.48 115.56-2.32L115.56-2.32Q115.40-2.24 114.82-1.82Q114.24-1.40 113.50-0.88Q112.76-0.36 112.02 0.06Q111.28 0.48 110.84 0.52L110.84 0.52Q109.12 0.72 107.16 1.60L107.16 1.60Q105.32 1.60 105.04 0.28L105.04 0.28Q105.08 0.04 105.08-0.28Q105.08-0.60 105.08-1L105.08-1Q105.08-3 104.68-5.70Q104.28-8.40 104.28-11.64L104.28-11.64Q104.28-13.08 104.44-15.06Q104.60-17.04 104.92-19.56L104.92-19.56Q105.40-20.68 106.92-20.68L106.92-20.68Q107.60-20.68 108.12-20.24L108.12-20.24Q110.28-21 112.32-21L112.32-21Q113.64-21 114.80-20.68Q115.96-20.36 116.90-19.88Q117.84-19.40 118.52-18.80Q119.20-18.20 119.52-17.60L119.52-17.60Q120.76-14.04 120.76-12.44ZM117.96-12.88L117.96-13.44Q117.88-14.28 117.68-14.92Q117.48-15.56 117.06-16.08Q116.64-16.60 115.90-17.08Q115.16-17.56 114-18.08L114-18.08Q113.16-18.48 112-18.48L112-18.48Q111.64-18.48 111-18.40Q110.36-18.32 109.72-18.22Q109.08-18.12 108.58-18.04Q108.08-17.96 107.96-17.96L107.96-17.96Q107.68-17.96 107.56-18L107.56-18Q106.92-16.32 106.92-10.76L106.92-10.76Q106.92-10.28 106.94-9.32Q106.96-8.36 107.06-7.08Q107.16-5.80 107.38-4.34Q107.60-2.88 108-1.40L108-1.40Q108.96-1.48 112.48-3.44L112.48-3.44Q112.96-3.68 113.86-4.46Q114.76-5.24 115.68-6.46Q116.60-7.68 117.28-9.30Q117.96-10.92 117.96-12.88L117.96-12.88Z M143.64-12.44L143.64-12.44Q143.56-9 141.44-6.08L141.44-6.08Q140.80-5.36 140.06-4.42Q139.32-3.48 138.44-2.32L138.44-2.32Q138.28-2.24 137.70-1.82Q137.12-1.40 136.38-0.88Q135.64-0.36 134.90 0.06Q134.16 0.48 133.72 0.52L133.72 0.52Q132 0.72 130.04 1.60L130.04 1.60Q128.20 1.60 127.92 0.28L127.92 0.28Q127.96 0.04 127.96-0.28Q127.96-0.60 127.96-1L127.96-1Q127.96-3 127.56-5.70Q127.16-8.40 127.16-11.64L127.16-11.64Q127.16-13.08 127.32-15.06Q127.48-17.04 127.80-19.56L127.80-19.56Q128.28-20.68 129.80-20.68L129.80-20.68Q130.48-20.68 131-20.24L131-20.24Q133.16-21 135.20-21L135.20-21Q136.52-21 137.68-20.68Q138.84-20.36 139.78-19.88Q140.72-19.40 141.40-18.80Q142.08-18.20 142.40-17.60L142.40-17.60Q143.64-14.04 143.64-12.44ZM140.84-12.88L140.84-13.44Q140.76-14.28 140.56-14.92Q140.36-15.56 139.94-16.08Q139.52-16.60 138.78-17.08Q138.04-17.56 136.88-18.08L136.88-18.08Q136.04-18.48 134.88-18.48L134.88-18.48Q134.52-18.48 133.88-18.40Q133.24-18.32 132.60-18.22Q131.96-18.12 131.46-18.04Q130.96-17.96 130.84-17.96L130.84-17.96Q130.56-17.96 130.44-18L130.44-18Q129.80-16.32 129.80-10.76L129.80-10.76Q129.80-10.28 129.82-9.32Q129.84-8.36 129.94-7.08Q130.04-5.80 130.26-4.34Q130.48-2.88 130.88-1.40L130.88-1.40Q131.84-1.48 135.36-3.44L135.36-3.44Q135.84-3.68 136.74-4.46Q137.64-5.24 138.56-6.46Q139.48-7.68 140.16-9.30Q140.84-10.92 140.84-12.88L140.84-12.88Z M163.12-1.80L163.60-1.80Q164.60-1.40 164.60-0.36L164.60-0.36Q164.60 1.12 161.76 1.12L161.76 1.12Q161.36 1.12 160.88 1.10Q160.40 1.08 160.04 1.08L160.04 1.08Q159.52 1.08 159.14 1.08Q158.76 1.08 158.52 1.12L158.52 1.12Q158.44 1.08 157.48 1.02Q156.52 0.96 154.68 0.80L154.68 0.80Q153.72 0.88 153.18 0.92Q152.64 0.96 152.48 0.96L152.48 0.96Q151 0.96 150.36 0.48L150.36 0.48Q150.16-0.92 150.04-2.18Q149.92-3.44 149.92-4.60L149.92-4.60Q149.92-6.64 150.10-8.24Q150.28-9.84 150.28-10.88L150.28-10.88Q150.28-12.24 150.12-12.72L150.12-12.72L150.32-16.92Q150.64-20.08 151.24-21.20L151.24-21.20Q151.40-21.36 152.26-21.56Q153.12-21.76 154.08-21.94Q155.04-22.12 155.76-22.26Q156.48-22.40 156.32-22.40L156.32-22.40Q156.56-22.48 157.36-22.56Q158.16-22.64 159.04-22.72Q159.92-22.80 160.62-22.84Q161.32-22.88 161.28-22.88L161.28-22.88L161.40-22.88Q161.72-22.88 162.02-22.46Q162.32-22.04 162.32-21.48L162.32-21.48Q162.32-21.12 162.28-20.86Q162.24-20.60 162-20.40Q161.76-20.20 161.20-20.10Q160.64-20 159.60-19.96L159.60-19.96Q157.80-19.88 157.16-19.68L157.16-19.68L156.92-19.68Q155.68-19.68 153.92-19.12L153.92-19.12Q153.72-18.92 153.56-18.36Q153.40-17.80 153.30-17.12Q153.20-16.44 153.14-15.76Q153.08-15.08 153.08-14.68L153.08-14.68Q153.08-13.64 153.16-13.08Q153.24-12.52 153.20-12.52L153.20-12.52Q154.48-12.56 155.50-12.76Q156.52-12.96 157.32-12.96L157.32-12.96Q157.68-12.96 158.16-12.94Q158.64-12.92 159.16-12.92Q159.68-12.92 160.10-12.90Q160.52-12.88 160.76-12.88L160.76-12.88Q161.16-12.88 161.34-12.52Q161.52-12.16 161.52-11.64L161.52-11.64Q161.52-10.76 160.88-10.50Q160.24-10.24 158.60-10.24L158.60-10.24Q156.68-10.24 156.20-10.12L156.20-10.12Q156-10.12 155.74-10.14Q155.48-10.16 155.20-10.16L155.20-10.16Q154.76-10.16 154.26-10.14Q153.76-10.12 153.20-10.08L153.20-10.08Q153.08-9.92 153-9.34Q152.92-8.76 152.88-8.12Q152.84-7.48 152.84-6.98Q152.84-6.48 152.84-6.48L152.84-6.48L152.84-5.64Q152.84-4.24 152.72-2.04L152.72-2.04Q153-1.96 153.86-1.88Q154.72-1.80 155.68-1.74Q156.64-1.68 157.50-1.62Q158.36-1.56 158.60-1.52L158.60-1.52Q158.64-1.52 159.20-1.56Q159.76-1.60 160.80-1.68L160.80-1.68Q162.28-1.80 163.12-1.80L163.12-1.80Z M186.40-8.80L186.40-8.80L186.40-8.24Q186.40-7.08 186.28-4.52L186.28-4.52Q186.28-4.36 186.30-4.22Q186.32-4.08 186.32-3.96L186.32-3.96Q186.32-3.60 186.24-3.10Q186.16-2.60 186-2.16Q185.84-1.72 185.58-1.40Q185.32-1.08 184.96-1.08L184.96-1.08Q184.24-1.08 183.68-1.64L183.68-1.64Q183.68-2.28 180.48-6.08L180.48-6.08L179.64-7.68Q179.40-8.12 179.04-8.58Q178.68-9.04 178.32-9.48L178.32-9.48Q178.12-9.64 177.70-10.24Q177.28-10.84 176.86-11.52Q176.44-12.20 176.10-12.76Q175.76-13.32 175.76-13.32L175.76-13.32Q174.80-14.28 172.84-17.16L172.84-17.16Q172.84-16.20 172.78-15.40Q172.72-14.60 172.64-13.56Q172.56-12.52 172.40-11.08Q172.24-9.64 172.08-7.40L172.08-7.40L172.08-7.20Q172.08-6.88 171.94-6.20Q171.80-5.52 171.62-4.82Q171.44-4.12 171.28-3.58Q171.12-3.04 171.12-2.96L171.12-2.96Q170.72-1.96 169.68-1.96L169.68-1.96Q168.72-1.96 168.56-3.16L168.56-3.16L169.44-8.64Q169.52-10.20 169.92-13.60L169.92-13.60Q170-13.96 170.06-14.90Q170.12-15.84 170.22-16.88Q170.32-17.92 170.44-18.88Q170.56-19.84 170.72-20.28L170.72-20.28Q171.44-21.16 172.72-21.16L172.72-21.16Q173.24-20.96 174.16-19.60L174.16-19.60L175.48-17.60Q176.04-16.92 177-15.76Q177.96-14.60 179.24-12.92L179.24-12.92Q180.68-11 181.70-9.38Q182.72-7.76 183.48-6.48L183.48-6.48Q183.60-6.84 183.68-7.76Q183.76-8.68 183.76-10L183.76-10Q183.76-10.56 183.74-10.96Q183.72-11.36 183.68-11.56L183.68-11.56Q183.72-11.60 183.72-11.88L183.72-11.88Q183.72-12 183.66-12.50Q183.60-13 183.50-13.60Q183.40-14.20 183.34-14.72Q183.28-15.24 183.28-15.44L183.28-15.44Q183.28-15.68 183.36-15.92L183.36-15.92Q183.28-16.96 183.16-18.22Q183.04-19.48 182.84-21L182.84-21Q183.12-22.56 184.16-22.56L184.16-22.56Q185.12-22.56 185.60-21.56L185.60-21.56Q185.64-20.36 185.76-19.18Q185.88-18 186-16.56Q186.12-15.12 186.24-13.24Q186.36-11.36 186.40-8.80Z"/></g>
</svg>
</g><g opacity="1" transform="rotate(0 133.4366 154.7749)">
<svg width="14.6776" height="186" x="133.4366" y="154.7749" version="1.1" preserveAspectRatio="none" viewBox="6.48 -25.44 2.3200000000000003 29.4">
  <g transform="matrix(1 0 0 1 0 0)" class="icon3"><path id="id-lXek8z7fT1" d="M8.68-12.24L8.68-12.24Q8.68-12 8.74-11Q8.80-10 8.80-8.16L8.80-8.16Q8.80-6.80 8.60-6.32L8.60-6.32Q8.68-5.96 8.68-5.58Q8.68-5.20 8.68-4.76L8.68-4.76Q8.68-3.84 8.58-2.86Q8.48-1.88 8.44-0.96L8.44-0.96Q8.48-0.48 8.48-0.02Q8.48 0.44 8.48 0.88L8.48 0.88Q8.48 1.36 8.48 1.90Q8.48 2.44 8.42 2.90Q8.36 3.36 8.18 3.66Q8 3.96 7.64 3.96L7.64 3.96Q7 3.96 6.84 3.72L6.84 3.72Q6.48 2.24 6.48-0.04L6.48-0.04Q6.48-1.40 6.66-3.12Q6.84-4.84 6.84-6.56L6.84-6.56Q6.84-8.08 6.60-9.52L6.60-9.52Q6.60-9.60 6.64-10.30Q6.68-11 6.72-11.88Q6.76-12.76 6.84-13.54Q6.92-14.32 7.04-14.56L7.04-14.56Q6.84-15.36 6.84-17.48L6.84-17.48Q6.84-18.12 6.84-18.82Q6.84-19.52 6.86-20.40Q6.88-21.28 6.98-22.42Q7.08-23.56 7.28-25.16L7.28-25.16Q7.32-25.44 7.84-25.44L7.84-25.44Q8.60-25.44 8.70-25.04Q8.80-24.64 8.80-23.72L8.80-23.72Q8.80-23.12 8.76-22.32Q8.72-21.52 8.64-20.48L8.64-20.48Q8.68-19.20 8.68-17.14Q8.68-15.08 8.68-12.24Z"/></g>
</svg>
</g></svg></svg>