<svg version="1.1" preserveAspectRatio="none" xmlns="http://www.w3.org/2000/svg" width="500" height="500" viewBox="0 0 500 500"><rect width="100%" height="100%" fill="#FFFFFF" fill-opacity="1"/><svg viewBox="140.8421 162.0333 262.9932 186" width="333" height="235.5117927003436" x="83.5px" y="132.2441px" xmlns="http://www.w3.org/2000/svg" xmlns:xlink="http://www.w3.org/1999/xlink" preserveAspectRatio="none"><defs></defs><style>.companyName {fill:#0C0C0C;fill-opacity:1;}.icon3 {fill:#0C0C0C;fill-opacity:1;}.icon3-str {stroke:#0C0C0C;stroke-opacity:1;}.text {fill:#0C0C0C;fill-opacity:1;}</style><g opacity="1" transform="rotate(0 175.5197 172.0333)">
<svg width="228.3156" height="120" x="175.5197" y="172.0333" version="1.1" preserveAspectRatio="none" viewBox="3.92 -22.84 98.47999999999999 51.76">
  <g transform="matrix(1 0 0 1 0 0)" class="companyName"><path id="id-D6z1nYkh8" d="M16.76-2.80L17.24-2.80Q18.56-2.12 18.56-0.84L18.56-0.84Q18.56 0 18.14 0.36Q17.72 0.72 16.94 0.86Q16.16 1 15 1.02Q13.84 1.04 12.40 1.12L12.40 1.12Q11.92 0.96 8.88 0.80L8.88 0.80Q8.44 0.84 8.04 0.86Q7.64 0.88 7.28 0.88L7.28 0.88Q5.12 0.88 4.32 0.24L4.32 0.24Q4.12-1.36 4.02-2.72Q3.92-4.08 3.92-5.20L3.92-5.20Q3.92-6.96 4.06-8.26Q4.20-9.56 4.20-10.60L4.20-10.60Q4.20-11.88 4.08-12.60L4.08-12.60L4.32-16.80Q4.48-18.32 4.70-19.40Q4.92-20.48 5.24-21.04L5.24-21.04Q5.48-21.36 7.64-21.84L7.64-21.84L10.20-22.40Q10.44-22.44 11.20-22.52Q11.96-22.60 12.78-22.68Q13.60-22.76 14.24-22.80Q14.88-22.84 14.84-22.84L14.84-22.84L15-22.84Q15.44-22.84 15.90-22.24Q16.36-21.64 16.36-20.84L16.36-20.84Q16.36-20.44 16.34-20.12Q16.32-19.80 16.08-19.58Q15.84-19.36 15.28-19.24Q14.72-19.12 13.64-19.08L13.64-19.08Q11.88-19 11.24-18.72L11.24-18.72L11.04-18.72Q10-18.72 8.44-18.24L8.44-18.24Q8.28-18.04 8.20-17.54Q8.12-17.04 8.08-16.50Q8.04-15.96 8.02-15.58Q8-15.20 8-15.32L8-15.32Q7.96-15.12 7.94-14.92Q7.92-14.72 7.92-14.40L7.92-14.40Q7.92-14.12 7.94-13.78Q7.96-13.44 8-13.04L8-13.04Q9.24-13.16 10.02-13.30Q10.80-13.44 11.24-13.44L11.24-13.44Q12.08-13.44 12.88-13.48Q13.68-13.52 14.30-13.38Q14.92-13.24 15.28-12.82Q15.64-12.40 15.64-11.48L15.64-11.48Q15.64-10.44 14.98-10.12Q14.32-9.80 12.68-9.76L12.68-9.76Q10.76-9.68 10.36-9.60L10.36-9.60Q10.12-9.60 9.86-9.62Q9.60-9.64 9.28-9.64L9.28-9.64Q9.08-9.64 8.82-9.66Q8.56-9.68 8.32-9.66Q8.08-9.64 7.90-9.50Q7.72-9.36 7.72-9L7.72-9Q7.72-8.76 7.74-8.38Q7.76-8 7.76-7.68L7.76-7.68Q7.76-7.20 7.74-6.72Q7.72-6.24 7.70-5.70Q7.68-5.16 7.66-4.48Q7.64-3.80 7.64-2.88L7.64-2.88Q7.88-2.84 8.58-2.80Q9.28-2.76 10.06-2.72Q10.84-2.68 11.56-2.62Q12.28-2.56 12.52-2.52L12.52-2.52Q12.56-2.52 13.08-2.56Q13.60-2.60 14.60-2.68L14.60-2.68Q15.96-2.80 16.76-2.80L16.76-2.80Z M38.68-1.44L38.68-1.44Q38.68-0.72 38.04-0.10Q37.40 0.52 36.76 0.52L36.76 0.52Q36.44 0.52 36.24 0.32L36.24 0.32Q36.20 0.32 35.88-0.08Q35.56-0.48 35.12-1.08Q34.68-1.68 34.16-2.36Q33.64-3.04 33.20-3.64Q32.76-4.24 32.50-4.62Q32.24-5 32.28-4.96L32.28-4.96Q32.20-5.20 31.88-5.72Q31.56-6.24 31.18-6.82Q30.80-7.40 30.48-7.90Q30.16-8.40 30.12-8.52L30.12-8.52Q30.04-8.52 29.68-8.46Q29.32-8.40 28.88-8.34Q28.44-8.28 27.98-8.22Q27.52-8.16 27.28-8.16L27.28-8.16L27.08-8.16Q26.96-6.92 26.88-6.12Q26.80-5.32 26.80-4.92L26.80-4.92L26.80-3.68Q26.80-1.52 26.44 1L26.44 1Q25.96 1.72 25.04 1.72L25.04 1.72Q24.24 1.72 23.66 1.30Q23.08 0.88 23.08-0.16L23.08-0.16Q23.08-0.48 23.10-0.94Q23.12-1.40 23.14-1.88Q23.16-2.36 23.18-2.74Q23.20-3.12 23.20-3.24L23.20-3.24L23.20-3.44L23.48-9.48Q23.52-10 23.50-10.76Q23.48-11.52 23.56-12.52L23.56-12.52L23.88-14.92Q24.12-16.16 24.12-17.04L24.12-17.04Q24.12-17.32 24.10-17.58Q24.08-17.84 24.04-18.12L24.04-18.12Q24.04-18.12 24.16-19.52L24.16-19.52Q24.20-20.48 24.52-21.08Q24.84-21.68 26.04-21.68L26.04-21.68Q26.88-21.68 27.72-21.40L27.72-21.40Q28.52-21.48 29.14-21.48Q29.76-21.48 30.20-21.48L30.20-21.48Q30.60-21.48 30.92-21.46Q31.24-21.44 31.56-21.38Q31.88-21.32 32.28-21.22Q32.68-21.12 33.24-20.96L33.24-20.96L35-19.76Q36.48-18.60 36.98-17.44Q37.48-16.28 37.48-15L37.48-15Q37.48-14.12 37.42-13.50Q37.36-12.88 37-12.28Q36.64-11.68 35.88-11.04Q35.12-10.40 33.72-9.44L33.72-9.44Q34.64-8.28 35.80-6L35.80-6Q36.52-5.44 38.68-1.44ZM33.76-14.20L33.76-14.20Q33.80-14.36 33.80-14.64L33.80-14.64Q33.80-15.04 33.72-15.46Q33.64-15.88 33.36-16.30Q33.08-16.72 32.54-17.14Q32-17.56 31.04-17.96L31.04-17.96Q30.20-18.28 29.64-18.28L29.64-18.28Q29.48-18.24 29.20-18.20L29.20-18.20Q28.96-18.12 28.60-18.06Q28.24-18 27.80-17.92L27.80-17.92Q27.84-17.68 27.84-17.46Q27.84-17.24 27.78-16.64Q27.72-16.04 27.60-14.92Q27.48-13.80 27.32-11.80L27.32-11.80Q27.48-11.76 27.64-11.76Q27.80-11.76 27.96-11.76L27.96-11.76Q28.72-11.76 29.66-11.98Q30.60-12.20 31.44-12.54Q32.28-12.88 32.92-13.32Q33.56-13.76 33.76-14.20Z M59.20-1.44L59.20-1.44Q59.20-0.72 58.56-0.10Q57.92 0.52 57.28 0.52L57.28 0.52Q56.96 0.52 56.76 0.32L56.76 0.32Q56.72 0.32 56.40-0.08Q56.08-0.48 55.64-1.08Q55.20-1.68 54.68-2.36Q54.16-3.04 53.72-3.64Q53.28-4.24 53.02-4.62Q52.76-5 52.80-4.96L52.80-4.96Q52.72-5.20 52.40-5.72Q52.08-6.24 51.70-6.82Q51.32-7.40 51.00-7.90Q50.68-8.40 50.64-8.52L50.64-8.52Q50.56-8.52 50.20-8.46Q49.84-8.40 49.40-8.34Q48.96-8.28 48.50-8.22Q48.04-8.16 47.80-8.16L47.80-8.16L47.60-8.16Q47.48-6.92 47.40-6.12Q47.32-5.32 47.32-4.92L47.32-4.92L47.32-3.68Q47.32-1.52 46.96 1L46.96 1Q46.48 1.72 45.56 1.72L45.56 1.72Q44.76 1.72 44.18 1.30Q43.60 0.88 43.60-0.16L43.60-0.16Q43.60-0.48 43.62-0.94Q43.64-1.40 43.66-1.88Q43.68-2.36 43.70-2.74Q43.72-3.12 43.72-3.24L43.72-3.24L43.72-3.44L44.00-9.48Q44.04-10 44.02-10.76Q44.00-11.52 44.08-12.52L44.08-12.52L44.40-14.92Q44.64-16.16 44.64-17.04L44.64-17.04Q44.64-17.32 44.62-17.58Q44.60-17.84 44.56-18.12L44.56-18.12Q44.56-18.12 44.68-19.52L44.68-19.52Q44.72-20.48 45.04-21.08Q45.36-21.68 46.56-21.68L46.56-21.68Q47.40-21.68 48.24-21.40L48.24-21.40Q49.04-21.48 49.66-21.48Q50.28-21.48 50.72-21.48L50.72-21.48Q51.12-21.48 51.44-21.46Q51.76-21.44 52.08-21.38Q52.40-21.32 52.80-21.22Q53.20-21.12 53.76-20.96L53.76-20.96L55.52-19.76Q57-18.60 57.50-17.44Q58-16.28 58-15L58-15Q58-14.12 57.94-13.50Q57.88-12.88 57.52-12.28Q57.16-11.68 56.40-11.04Q55.64-10.40 54.24-9.44L54.24-9.44Q55.16-8.28 56.32-6L56.32-6Q57.04-5.44 59.20-1.44ZM54.28-14.20L54.28-14.20Q54.32-14.36 54.32-14.64L54.32-14.64Q54.32-15.04 54.24-15.46Q54.16-15.88 53.88-16.30Q53.60-16.72 53.06-17.14Q52.52-17.56 51.56-17.96L51.56-17.96Q50.72-18.28 50.16-18.28L50.16-18.28Q50.00-18.24 49.72-18.20L49.72-18.20Q49.48-18.12 49.12-18.06Q48.76-18 48.32-17.92L48.32-17.92Q48.36-17.68 48.36-17.46Q48.36-17.24 48.30-16.64Q48.24-16.04 48.12-14.92Q48.00-13.80 47.84-11.80L47.84-11.80Q48.00-11.76 48.16-11.76Q48.32-11.76 48.48-11.76L48.48-11.76Q49.24-11.76 50.18-11.98Q51.12-12.20 51.96-12.54Q52.80-12.88 53.44-13.32Q54.08-13.76 54.28-14.20Z M81.12-10.64L81.04-7.84Q80.52-5.76 78.08-3.04L78.08-3.04Q77.76-2.92 77.26-2.56Q76.76-2.20 75.98-1.82Q75.20-1.44 74.08-1.16Q72.96-0.88 71.44-0.88L71.44-0.88Q68.40-0.88 66.36-2.50Q64.32-4.12 63.20-7.60L63.20-7.60Q63.16-7.88 63.16-8.16Q63.16-8.44 63.16-8.76L63.16-8.76Q63.16-11.24 63.68-13.14Q64.20-15.04 65.08-16.44Q65.96-17.84 67.10-18.80Q68.24-19.76 69.48-20.36L69.48-20.36Q71.52-20.92 73.48-20.92L73.48-20.92Q74.88-20.92 76.24-20.20Q77.60-19.48 78.66-18.16Q79.72-16.84 80.38-14.94Q81.04-13.04 81.12-10.64L81.12-10.64ZM77.36-7.96L77.36-7.96Q77.64-9.60 77.64-10.52L77.64-10.52Q77.64-12.04 77.20-13.32Q76.76-14.60 76.16-15.54Q75.56-16.48 74.90-17.02Q74.24-17.56 73.80-17.56L73.80-17.56Q71.68-17.56 70.34-16.62Q69.00-15.68 68.24-14.36Q67.48-13.04 67.20-11.60Q66.92-10.16 66.92-9.16L66.92-9.16Q66.92-8.24 67.22-7.38Q67.52-6.52 68.10-5.86Q68.68-5.20 69.48-4.80Q70.28-4.40 71.32-4.40L71.32-4.40Q73.76-4.40 75.16-5.30Q76.56-6.20 77.36-7.96Z M102.40-1.44L102.40-1.44Q102.40-0.72 101.76-0.10Q101.12 0.52 100.48 0.52L100.48 0.52Q100.16 0.52 99.96 0.32L99.96 0.32Q99.92 0.32 99.60-0.08Q99.28-0.48 98.84-1.08Q98.40-1.68 97.88-2.36Q97.36-3.04 96.92-3.64Q96.48-4.24 96.22-4.62Q95.96-5 96-4.96L96-4.96Q95.92-5.20 95.60-5.72Q95.28-6.24 94.90-6.82Q94.52-7.40 94.20-7.90Q93.88-8.40 93.84-8.52L93.84-8.52Q93.76-8.52 93.40-8.46Q93.04-8.40 92.60-8.34Q92.16-8.28 91.70-8.22Q91.24-8.16 91-8.16L91-8.16L90.80-8.16Q90.68-6.92 90.60-6.12Q90.52-5.32 90.52-4.92L90.52-4.92L90.52-3.68Q90.52-1.52 90.16 1L90.16 1Q89.68 1.72 88.76 1.72L88.76 1.72Q87.96 1.72 87.38 1.30Q86.80 0.88 86.80-0.16L86.80-0.16Q86.80-0.48 86.82-0.94Q86.84-1.40 86.86-1.88Q86.88-2.36 86.90-2.74Q86.92-3.12 86.92-3.24L86.92-3.24L86.92-3.44L87.20-9.48Q87.24-10 87.22-10.76Q87.20-11.52 87.28-12.52L87.28-12.52L87.60-14.92Q87.84-16.16 87.84-17.04L87.84-17.04Q87.84-17.32 87.82-17.58Q87.80-17.84 87.76-18.12L87.76-18.12Q87.76-18.12 87.88-19.52L87.88-19.52Q87.92-20.48 88.24-21.08Q88.56-21.68 89.76-21.68L89.76-21.68Q90.60-21.68 91.44-21.40L91.44-21.40Q92.24-21.48 92.86-21.48Q93.48-21.48 93.92-21.48L93.92-21.48Q94.32-21.48 94.64-21.46Q94.96-21.44 95.28-21.38Q95.60-21.32 96-21.22Q96.40-21.12 96.96-20.96L96.96-20.96L98.72-19.76Q100.20-18.60 100.70-17.44Q101.20-16.28 101.20-15L101.20-15Q101.20-14.12 101.14-13.50Q101.08-12.88 100.72-12.28Q100.36-11.68 99.60-11.04Q98.84-10.40 97.44-9.44L97.44-9.44Q98.36-8.28 99.52-6L99.52-6Q100.24-5.44 102.40-1.44ZM97.48-14.20L97.48-14.20Q97.52-14.36 97.52-14.64L97.52-14.64Q97.52-15.04 97.44-15.46Q97.36-15.88 97.08-16.30Q96.80-16.72 96.26-17.14Q95.72-17.56 94.76-17.96L94.76-17.96Q93.92-18.28 93.36-18.28L93.36-18.28Q93.20-18.24 92.92-18.20L92.92-18.20Q92.68-18.12 92.32-18.06Q91.96-18 91.52-17.92L91.52-17.92Q91.56-17.68 91.56-17.46Q91.56-17.24 91.50-16.64Q91.44-16.04 91.32-14.92Q91.20-13.80 91.04-11.80L91.04-11.80Q91.20-11.76 91.36-11.76Q91.52-11.76 91.68-11.76L91.68-11.76Q92.44-11.76 93.38-11.98Q94.32-12.20 95.16-12.54Q96-12.88 96.64-13.32Q97.28-13.76 97.48-14.20Z M21.52 22.88L21.52 22.88Q21.44 22.92 17.68 23.04L17.68 23.04Q17.48 24.88 17.22 26.24Q16.96 27.60 16.64 28.52L16.64 28.52Q16.24 28.92 15.36 28.92L15.36 28.92Q13.72 28.92 13.44 28.08L13.44 28.08Q13.44 26.52 14.08 23.20L14.08 23.20Q12.64 23.20 12.08 23.18Q11.52 23.16 11.18 23.16Q10.84 23.16 10.34 23.14Q9.84 23.12 8.52 23.12L8.52 23.12Q8.08 23.12 7.42 22.98Q6.76 22.84 6.10 22.62Q5.44 22.40 4.86 22.16Q4.28 21.92 4.04 21.68L4.04 21.68Q3.92 21.32 3.92 20.84L3.92 20.84Q3.92 19.60 4.68 17.96L4.68 17.96Q5.44 16.96 6.72 13.64L6.72 13.64L10.04 8.52Q10.44 8.16 11.12 8.16L11.12 8.16Q12.80 8.16 12.80 9.56L12.80 9.56Q12.80 9.60 12.60 10.08Q12.40 10.56 12.02 11.36Q11.64 12.16 11.08 13.18Q10.52 14.20 9.80 15.28L9.80 15.28L7.84 19.84Q7.96 19.96 8.20 19.96L8.20 19.96Q8.52 19.96 8.68 19.86Q8.84 19.76 8.84 19.80L8.84 19.80Q9.04 19.76 9.26 19.74Q9.48 19.72 9.72 19.72L9.72 19.72Q10.16 19.72 10.66 19.78Q11.16 19.84 11.76 19.92L11.76 19.92Q12.88 19.92 14.40 19.80L14.40 19.80L14.64 16.72Q14.60 16.36 14.58 16Q14.56 15.64 14.56 15.28L14.56 15.28Q14.56 14.40 14.70 13.60Q14.84 12.80 14.84 11.88L14.84 11.88Q14.84 11.64 14.80 11.02Q14.76 10.40 14.70 9.72Q14.64 9.04 14.60 8.48Q14.56 7.92 14.56 7.84L14.56 7.84Q14.96 6.84 15.92 6.84L15.92 6.84Q16.08 6.88 16.24 6.88L16.24 6.88Q16.40 6.92 16.64 6.92Q16.88 6.92 17.20 6.96L17.20 6.96Q17.32 7.12 17.50 7.70Q17.68 8.28 17.84 9.02Q18 9.76 18.12 10.54Q18.24 11.32 18.24 11.88L18.24 11.88Q18.24 12.48 18.20 13.28Q18.16 14.08 18.12 15.36L18.12 15.36Q18.16 15.52 18.16 16.12L18.16 16.12Q18.16 16.68 18.12 17.56Q18.08 18.44 18 19.64L18 19.64L18.40 19.64Q18.96 19.64 19.66 19.70Q20.36 19.76 21.28 19.84L21.28 19.84Q22.12 20.08 22.12 21.40L22.12 21.40Q22.12 22.36 21.52 22.88Z M42.60 16.60L42.60 16.60Q42.52 17.48 42.20 18.62Q41.88 19.76 41.46 20.90Q41.04 22.04 40.54 23.04Q40.04 24.04 39.56 24.64L39.56 24.64L37.20 26.28Q35.68 27.12 34.08 27.12L34.08 27.12Q32.44 27.12 31.06 26.26Q29.68 25.40 28.66 23.98Q27.64 22.56 27.06 20.78Q26.48 19 26.48 17.12L26.48 17.12Q26.48 14.96 27.38 13.12Q28.28 11.28 30.44 9.48L30.44 9.48Q31.48 8.60 32.44 8.16Q33.40 7.72 34.22 7.54Q35.04 7.36 35.68 7.34Q36.32 7.32 36.76 7.32L36.76 7.32Q38.28 7.32 39.32 7.80Q40.36 8.28 41.04 9.36Q41.72 10.44 42.08 12.22Q42.44 14 42.60 16.60ZM38.56 18.88L38.56 18.88Q39.08 17.44 39.08 15.76L39.08 15.76Q39.08 14.88 38.92 13.98Q38.76 13.08 38.44 12.36Q38.12 11.64 37.62 11.18Q37.12 10.72 36.48 10.72L36.48 10.72Q35.36 10.72 34.22 11.12Q33.08 11.52 32.18 12.30Q31.28 13.08 30.72 14.26Q30.16 15.44 30.16 17L30.16 17Q30.20 17.48 30.22 18.04Q30.24 18.60 30.40 19.24L30.40 19.24L30.80 20.88Q32.28 23.56 34.16 23.56L34.16 23.56Q35.52 23.56 36.66 22.30Q37.80 21.04 38.56 18.88Z M66.60 22.88L66.60 22.88Q66.52 22.92 62.76 23.04L62.76 23.04Q62.56 24.88 62.30 26.24Q62.04 27.60 61.72 28.52L61.72 28.52Q61.32 28.92 60.44 28.92L60.44 28.92Q58.80 28.92 58.52 28.08L58.52 28.08Q58.52 26.52 59.16 23.20L59.16 23.20Q57.72 23.20 57.16 23.18Q56.60 23.16 56.26 23.16Q55.92 23.16 55.42 23.14Q54.92 23.12 53.60 23.12L53.60 23.12Q53.16 23.12 52.50 22.98Q51.84 22.84 51.18 22.62Q50.52 22.40 49.94 22.16Q49.36 21.92 49.12 21.68L49.12 21.68Q49 21.32 49 20.84L49 20.84Q49 19.60 49.76 17.96L49.76 17.96Q50.52 16.96 51.80 13.64L51.80 13.64L55.12 8.52Q55.52 8.16 56.20 8.16L56.20 8.16Q57.88 8.16 57.88 9.56L57.88 9.56Q57.88 9.60 57.68 10.08Q57.48 10.56 57.10 11.36Q56.72 12.16 56.16 13.18Q55.60 14.20 54.88 15.28L54.88 15.28L52.92 19.84Q53.04 19.96 53.28 19.96L53.28 19.96Q53.60 19.96 53.76 19.86Q53.92 19.76 53.92 19.80L53.92 19.80Q54.12 19.76 54.34 19.74Q54.56 19.72 54.80 19.72L54.80 19.72Q55.24 19.72 55.74 19.78Q56.24 19.84 56.84 19.92L56.84 19.92Q57.96 19.92 59.48 19.80L59.48 19.80L59.72 16.72Q59.68 16.36 59.66 16Q59.64 15.64 59.64 15.28L59.64 15.28Q59.64 14.40 59.78 13.60Q59.92 12.80 59.92 11.88L59.92 11.88Q59.92 11.64 59.88 11.02Q59.84 10.40 59.78 9.72Q59.72 9.04 59.68 8.48Q59.64 7.92 59.64 7.84L59.64 7.84Q60.04 6.84 61 6.84L61 6.84Q61.16 6.88 61.32 6.88L61.32 6.88Q61.48 6.92 61.72 6.92Q61.96 6.92 62.28 6.96L62.28 6.96Q62.40 7.12 62.58 7.70Q62.76 8.28 62.92 9.02Q63.08 9.76 63.20 10.54Q63.32 11.32 63.32 11.88L63.32 11.88Q63.32 12.48 63.28 13.28Q63.24 14.08 63.20 15.36L63.20 15.36Q63.24 15.52 63.24 16.12L63.24 16.12Q63.24 16.68 63.20 17.56Q63.16 18.44 63.08 19.64L63.08 19.64L63.48 19.64Q64.04 19.64 64.74 19.70Q65.44 19.76 66.36 19.84L66.36 19.84Q67.20 20.08 67.20 21.40L67.20 21.40Q67.20 22.36 66.60 22.88Z"/></g>
</svg>
</g><g opacity="1" transform="rotate(0 175.5197 312.0333)">
<svg width="205.4522" height="26" x="175.5197" y="312.0333" version="1.1" preserveAspectRatio="none" viewBox="2.8 -22.56 190.95999999999998 24.16">
  <g transform="matrix(1 0 0 1 0 0)" class="text"><path id="id-D-YM9nyY49" d="M20.64-8.80L20.64-8.80L20.64-8.24Q20.64-7.08 20.52-4.52L20.52-4.52Q20.52-4.36 20.54-4.22Q20.56-4.08 20.56-3.96L20.56-3.96Q20.56-3.60 20.48-3.10Q20.40-2.60 20.24-2.16Q20.08-1.72 19.82-1.40Q19.56-1.08 19.20-1.08L19.20-1.08Q18.48-1.08 17.92-1.64L17.92-1.64Q17.92-2.28 14.72-6.08L14.72-6.08L13.88-7.68Q13.64-8.12 13.28-8.58Q12.92-9.04 12.56-9.48L12.56-9.48Q12.36-9.64 11.94-10.24Q11.52-10.84 11.10-11.52Q10.68-12.20 10.34-12.76Q10-13.32 10-13.32L10-13.32Q9.04-14.28 7.08-17.16L7.08-17.16Q7.08-16.20 7.02-15.40Q6.96-14.60 6.88-13.56Q6.80-12.52 6.64-11.08Q6.48-9.64 6.32-7.40L6.32-7.40L6.32-7.20Q6.32-6.88 6.18-6.20Q6.04-5.52 5.86-4.82Q5.68-4.12 5.52-3.58Q5.36-3.04 5.36-2.96L5.36-2.96Q4.96-1.96 3.92-1.96L3.92-1.96Q2.96-1.96 2.80-3.16L2.80-3.16L3.68-8.64Q3.76-10.20 4.16-13.60L4.16-13.60Q4.24-13.96 4.30-14.90Q4.36-15.84 4.46-16.88Q4.56-17.92 4.68-18.88Q4.80-19.84 4.96-20.28L4.96-20.28Q5.68-21.16 6.96-21.16L6.96-21.16Q7.48-20.96 8.40-19.60L8.40-19.60L9.72-17.60Q10.28-16.92 11.24-15.76Q12.20-14.60 13.48-12.92L13.48-12.92Q14.92-11 15.94-9.38Q16.96-7.76 17.72-6.48L17.72-6.48Q17.84-6.84 17.92-7.76Q18-8.68 18-10L18-10Q18-10.56 17.98-10.96Q17.96-11.36 17.92-11.56L17.92-11.56Q17.96-11.60 17.96-11.88L17.96-11.88Q17.96-12 17.90-12.50Q17.84-13 17.74-13.60Q17.64-14.20 17.58-14.72Q17.52-15.24 17.52-15.44L17.52-15.44Q17.52-15.68 17.60-15.92L17.60-15.92Q17.52-16.96 17.40-18.22Q17.28-19.48 17.08-21L17.08-21Q17.36-22.56 18.40-22.56L18.40-22.56Q19.36-22.56 19.84-21.56L19.84-21.56Q19.88-20.36 20-19.18Q20.12-18 20.24-16.56Q20.36-15.12 20.48-13.24Q20.60-11.36 20.64-8.80Z M44.64-10.56L44.56-7.68Q44.04-5.68 41.64-3.04L41.64-3.04Q41.28-2.88 40.78-2.52Q40.28-2.16 39.50-1.80Q38.72-1.44 37.62-1.16Q36.52-0.88 34.96-0.88L34.96-0.88Q31.96-0.88 29.88-2.48Q27.80-4.08 26.72-7.52L26.72-7.52Q26.68-7.80 26.68-8.08Q26.68-8.36 26.68-8.68L26.68-8.68Q26.68-11.32 27.22-13.26Q27.76-15.20 28.66-16.58Q29.56-17.96 30.68-18.88Q31.80-19.80 33-20.36L33-20.36Q35.12-20.92 37-20.92L37-20.92Q38.44-20.92 39.80-20.18Q41.16-19.44 42.20-18.10Q43.24-16.76 43.90-14.84Q44.56-12.92 44.64-10.56L44.64-10.56ZM41.80-7.60L41.80-7.60Q41.96-8.60 42.02-9.30Q42.08-10 42.08-10.44L42.08-10.44Q42.08-12.12 41.60-13.60Q41.12-15.08 40.44-16.18Q39.76-17.28 38.94-17.92Q38.12-18.56 37.48-18.56L37.48-18.56Q35-18.56 33.18-17.44Q31.36-16.32 30.64-14.32L30.64-14.32Q29.48-11.08 29.48-9.04L29.48-9.04Q29.48-7.96 29.84-6.94Q30.20-5.92 30.88-5.14Q31.56-4.36 32.52-3.88Q33.48-3.40 34.64-3.40L34.64-3.40Q36.36-3.40 37.54-3.72Q38.72-4.04 39.54-4.60Q40.36-5.16 40.88-5.92Q41.40-6.68 41.80-7.60Z M64.88-17.48L64.88-17.48Q64.56-17.32 64-17.32L64-17.32Q63.80-17.32 63.26-17.38Q62.72-17.44 62.18-17.52Q61.64-17.60 61.20-17.66Q60.76-17.72 60.72-17.72L60.72-17.72Q59.52-17.72 57.68-17.24L57.68-17.24L58.28-12.72Q58.48-10.84 58.58-9.44Q58.68-8.04 58.68-7.08L58.68-7.08Q58.68-6.76 58.68-6.48Q58.68-6.20 58.64-6L58.64-6Q58.68-5.44 58.68-4.92Q58.68-4.40 58.68-3.96L58.68-3.96Q58.68-2.48 58.56-1.64Q58.44-0.80 58.22-0.38Q58 0.04 57.66 0.14Q57.32 0.24 56.88 0.24L56.88 0.24Q56.28 0.24 56.02-0.14Q55.76-0.52 55.68-1.06Q55.60-1.60 55.62-2.16Q55.64-2.72 55.64-3.08L55.64-3.08Q55.64-3.88 55.76-4.52Q55.88-5.16 55.88-5.72L55.88-5.72Q55.88-5.84 55.82-6.44Q55.76-7.04 55.70-8Q55.64-8.96 55.60-10.22Q55.56-11.48 55.56-12.92L55.56-12.92Q55.44-15 54.80-16.84L54.80-16.84Q54-16.80 53.20-16.74Q52.40-16.68 51.68-16.60Q50.96-16.52 50.42-16.40Q49.88-16.28 49.60-16.16L49.60-16.16Q48.16-16.16 48.16-17.40L48.16-17.40Q48.16-17.92 48.60-18.56L48.60-18.56L55.16-19.76L57.28-20Q58.24-20.12 59.16-20.12L59.16-20.12Q59.52-20.12 59.50-20.14Q59.48-20.16 59.82-20.14Q60.16-20.12 61.20-20.06Q62.24-20 64.68-19.84L64.68-19.84Q65.24-19.52 65.24-18.68L65.24-18.68Q65.24-18 64.88-17.48Z M101.88-19L101.88-19Q101.96-18.76 101.96-18.48L101.96-18.48Q101.96-16.88 100.92-16.88L100.92-16.88Q100.80-16.88 100.32-17.02Q99.84-17.16 99.28-17.30Q98.72-17.44 98.16-17.58Q97.60-17.72 97.24-17.72L97.24-17.72L96.88-17.72Q95.52-18.04 94.28-18.20Q93.04-18.36 91.88-18.36L91.88-18.36Q91.60-18.36 91.34-18.34Q91.08-18.32 90.84-18.32L90.84-18.32Q90.60-17.56 90.46-16.82Q90.32-16.08 90.32-15.28L90.32-15.28L90.32-15Q90.28-14.56 90.26-14.04Q90.24-13.52 90.24-12.96L90.24-12.96Q90.24-12.56 90.24-12.12Q90.24-11.68 90.28-11.24L90.28-11.24L94-11.32Q94.04-11.32 94.54-11.36Q95.04-11.40 95.68-11.46Q96.32-11.52 97-11.56Q97.68-11.60 98.12-11.60L98.12-11.60Q98.80-11.60 99.12-11.24Q99.44-10.88 99.44-10.32L99.44-10.32Q99.44-9.72 99.12-9.44Q98.80-9.16 98.16-9.04Q97.52-8.92 96.54-8.90Q95.56-8.88 94.24-8.76L94.24-8.76L93.48-8.76Q92.84-8.76 92.04-8.72Q91.24-8.68 90.32-8.60L90.32-8.60L90.32-4Q90.28-3.68 90.28-3.42Q90.28-3.16 90.28-2.92L90.28-2.92Q90.28-1.04 90.76 0.08L90.76 0.08Q90.68 1.40 89.56 1.40L89.56 1.40Q88.76 1.40 88.12 0.52L88.12 0.52L87.60-1.72Q87.44-2.56 87.36-3.40Q87.28-4.24 87.28-5.08L87.28-5.08Q87.28-5.72 87.30-6.44Q87.32-7.16 87.32-8L87.32-8Q87.32-9 87.32-10.14Q87.32-11.28 87.24-12.56L87.24-12.56Q87.36-18.40 88.56-20.76L88.56-20.76Q88.80-21 89.84-21L89.84-21Q90-21 90.46-20.96Q90.92-20.92 91.44-20.88Q91.96-20.84 92.44-20.80Q92.92-20.76 93.16-20.76L93.16-20.76Q93.28-20.76 93.34-20.78Q93.40-20.80 93.52-20.80L93.52-20.80Q94.16-20.80 96.80-20.20L96.80-20.20Q100.64-20.12 101.88-19Z M123.56-10.56L123.48-7.68Q122.96-5.68 120.56-3.04L120.56-3.04Q120.20-2.88 119.70-2.52Q119.20-2.16 118.42-1.80Q117.64-1.44 116.54-1.16Q115.44-0.88 113.88-0.88L113.88-0.88Q110.88-0.88 108.80-2.48Q106.72-4.08 105.64-7.52L105.64-7.52Q105.60-7.80 105.60-8.08Q105.60-8.36 105.60-8.68L105.60-8.68Q105.60-11.32 106.14-13.26Q106.68-15.20 107.58-16.58Q108.48-17.96 109.60-18.88Q110.72-19.80 111.92-20.36L111.92-20.36Q114.04-20.92 115.92-20.92L115.92-20.92Q117.36-20.92 118.72-20.18Q120.08-19.44 121.12-18.10Q122.16-16.76 122.82-14.84Q123.48-12.92 123.56-10.56L123.56-10.56ZM120.72-7.60L120.72-7.60Q120.88-8.60 120.94-9.30Q121.00-10 121.00-10.44L121.00-10.44Q121.00-12.12 120.52-13.60Q120.04-15.08 119.36-16.18Q118.68-17.28 117.86-17.92Q117.04-18.56 116.40-18.56L116.40-18.56Q113.92-18.56 112.10-17.44Q110.28-16.32 109.56-14.32L109.56-14.32Q108.40-11.08 108.40-9.04L108.40-9.04Q108.40-7.96 108.76-6.94Q109.12-5.92 109.80-5.14Q110.48-4.36 111.44-3.88Q112.40-3.40 113.56-3.40L113.56-3.40Q115.28-3.40 116.46-3.72Q117.64-4.04 118.46-4.60Q119.28-5.16 119.80-5.92Q120.32-6.68 120.72-7.60Z M145.28-13.32L145.28-13.32Q145.12-11.08 144.92-9.42Q144.72-7.76 144.34-6.48Q143.96-5.20 143.34-4.22Q142.72-3.24 141.76-2.36L141.76-2.36Q141.04-1.72 140.42-1.36Q139.80-1 139.22-0.84Q138.64-0.68 138.12-0.66Q137.60-0.64 137.12-0.64L137.12-0.64Q135.88-0.64 134.96-0.90Q134.04-1.16 133.28-1.80Q132.52-2.44 131.88-3.48Q131.24-4.52 130.56-6.08L130.56-6.08Q130.16-7.60 129.94-8.86Q129.72-10.12 129.60-11.24Q129.48-12.36 129.46-13.38Q129.44-14.40 129.44-15.44L129.44-15.44Q129.44-16.04 129.40-16.86Q129.36-17.68 129.46-18.46Q129.56-19.24 129.90-19.78Q130.24-20.32 131-20.32L131-20.32Q132.16-20.32 132.52-19.08L132.52-19.08Q132.44-18.56 132.40-17.70Q132.36-16.84 132.36-15.64L132.36-15.64Q132.36-13.72 132.42-12.34Q132.48-10.96 132.52-10.76L132.52-10.76Q132.56-10.12 132.74-9.24Q132.92-8.36 133.18-7.48Q133.44-6.60 133.68-5.92Q133.92-5.24 134.08-5.04L134.08-5.04Q134.84-3.88 137.20-3.36L137.20-3.36Q139.96-4 141.08-5.84Q142.20-7.68 142.20-11.16L142.20-11.16Q142.20-12.28 142.28-13.28Q142.36-14.28 142.44-15.16L142.44-15.16L142.32-17.92L142.32-18.48Q142.32-19.76 142.54-20.38Q142.76-21 143.84-21L143.84-21Q144.40-21 144.72-20.72Q145.04-20.44 145.18-20.02Q145.32-19.60 145.36-19.08Q145.40-18.56 145.40-18.04L145.40-18.04Q145.40-17.80 145.36-17.32Q145.32-16.84 145.30-16.32Q145.28-15.80 145.24-15.30Q145.20-14.80 145.20-14.56L145.20-14.56Q145.20-14.24 145.22-13.92Q145.24-13.60 145.28-13.32Z M169.64-8.80L169.64-8.80L169.64-8.24Q169.64-7.08 169.52-4.52L169.52-4.52Q169.52-4.36 169.54-4.22Q169.56-4.08 169.56-3.96L169.56-3.96Q169.56-3.60 169.48-3.10Q169.40-2.60 169.24-2.16Q169.08-1.72 168.82-1.40Q168.56-1.08 168.20-1.08L168.20-1.08Q167.48-1.08 166.92-1.64L166.92-1.64Q166.92-2.28 163.72-6.08L163.72-6.08L162.88-7.68Q162.64-8.12 162.28-8.58Q161.92-9.04 161.56-9.48L161.56-9.48Q161.36-9.64 160.94-10.24Q160.52-10.84 160.10-11.52Q159.68-12.20 159.34-12.76Q159-13.32 159-13.32L159-13.32Q158.04-14.28 156.08-17.16L156.08-17.16Q156.08-16.20 156.02-15.40Q155.96-14.60 155.88-13.56Q155.80-12.52 155.64-11.08Q155.48-9.64 155.32-7.40L155.32-7.40L155.32-7.20Q155.32-6.88 155.18-6.20Q155.04-5.52 154.86-4.82Q154.68-4.12 154.52-3.58Q154.36-3.04 154.36-2.96L154.36-2.96Q153.96-1.96 152.92-1.96L152.92-1.96Q151.96-1.96 151.80-3.16L151.80-3.16L152.68-8.64Q152.76-10.20 153.16-13.60L153.16-13.60Q153.24-13.96 153.30-14.90Q153.36-15.84 153.46-16.88Q153.56-17.92 153.68-18.88Q153.80-19.84 153.96-20.28L153.96-20.28Q154.68-21.16 155.96-21.16L155.96-21.16Q156.48-20.96 157.40-19.60L157.40-19.60L158.72-17.60Q159.28-16.92 160.24-15.76Q161.20-14.60 162.48-12.92L162.48-12.92Q163.92-11 164.94-9.38Q165.96-7.76 166.72-6.48L166.72-6.48Q166.84-6.84 166.92-7.76Q167-8.68 167-10L167-10Q167-10.56 166.98-10.96Q166.96-11.36 166.92-11.56L166.92-11.56Q166.96-11.60 166.96-11.88L166.96-11.88Q166.96-12 166.90-12.50Q166.84-13 166.74-13.60Q166.64-14.20 166.58-14.72Q166.52-15.24 166.52-15.44L166.52-15.44Q166.52-15.68 166.60-15.92L166.60-15.92Q166.52-16.96 166.40-18.22Q166.28-19.48 166.08-21L166.08-21Q166.36-22.56 167.40-22.56L167.40-22.56Q168.36-22.56 168.84-21.56L168.84-21.56Q168.88-20.36 169-19.18Q169.12-18 169.24-16.56Q169.36-15.12 169.48-13.24Q169.60-11.36 169.64-8.80Z M193.76-12.44L193.76-12.44Q193.68-9 191.56-6.08L191.56-6.08Q190.92-5.36 190.18-4.42Q189.44-3.48 188.56-2.32L188.56-2.32Q188.40-2.24 187.82-1.82Q187.24-1.40 186.50-0.88Q185.76-0.36 185.02 0.06Q184.28 0.48 183.84 0.52L183.84 0.52Q182.12 0.72 180.16 1.60L180.16 1.60Q178.32 1.60 178.04 0.28L178.04 0.28Q178.08 0.04 178.08-0.28Q178.08-0.60 178.08-1L178.08-1Q178.08-3 177.68-5.70Q177.28-8.40 177.28-11.64L177.28-11.64Q177.28-13.08 177.44-15.06Q177.60-17.04 177.92-19.56L177.92-19.56Q178.40-20.68 179.92-20.68L179.92-20.68Q180.60-20.68 181.12-20.24L181.12-20.24Q183.28-21 185.32-21L185.32-21Q186.64-21 187.80-20.68Q188.96-20.36 189.90-19.88Q190.84-19.40 191.52-18.80Q192.20-18.20 192.52-17.60L192.52-17.60Q193.76-14.04 193.76-12.44ZM190.96-12.88L190.96-13.44Q190.88-14.28 190.68-14.92Q190.48-15.56 190.06-16.08Q189.64-16.60 188.90-17.08Q188.16-17.56 187-18.08L187-18.08Q186.16-18.48 185-18.48L185-18.48Q184.64-18.48 184-18.40Q183.36-18.32 182.72-18.22Q182.08-18.12 181.58-18.04Q181.08-17.96 180.96-17.96L180.96-17.96Q180.68-17.96 180.56-18L180.56-18Q179.92-16.32 179.92-10.76L179.92-10.76Q179.92-10.28 179.94-9.32Q179.96-8.36 180.06-7.08Q180.16-5.80 180.38-4.34Q180.60-2.88 181-1.40L181-1.40Q181.96-1.48 185.48-3.44L185.48-3.44Q185.96-3.68 186.86-4.46Q187.76-5.24 188.68-6.46Q189.60-7.68 190.28-9.30Q190.96-10.92 190.96-12.88L190.96-12.88Z"/></g>
</svg>
</g><g opacity="1" transform="rotate(0 140.8421 162.0333)">
<svg width="14.6776" height="186" x="140.8421" y="162.0333" version="1.1" preserveAspectRatio="none" viewBox="6.48 -25.44 2.3200000000000003 29.4">
  <g transform="matrix(1 0 0 1 0 0)" class="icon3"><path id="id-lXek8z7fT1" d="M8.68-12.24L8.68-12.24Q8.68-12 8.74-11Q8.80-10 8.80-8.16L8.80-8.16Q8.80-6.80 8.60-6.32L8.60-6.32Q8.68-5.96 8.68-5.58Q8.68-5.20 8.68-4.76L8.68-4.76Q8.68-3.84 8.58-2.86Q8.48-1.88 8.44-0.96L8.44-0.96Q8.48-0.48 8.48-0.02Q8.48 0.44 8.48 0.88L8.48 0.88Q8.48 1.36 8.48 1.90Q8.48 2.44 8.42 2.90Q8.36 3.36 8.18 3.66Q8 3.96 7.64 3.96L7.64 3.96Q7 3.96 6.84 3.72L6.84 3.72Q6.48 2.24 6.48-0.04L6.48-0.04Q6.48-1.40 6.66-3.12Q6.84-4.84 6.84-6.56L6.84-6.56Q6.84-8.08 6.60-9.52L6.60-9.52Q6.60-9.60 6.64-10.30Q6.68-11 6.72-11.88Q6.76-12.76 6.84-13.54Q6.92-14.32 7.04-14.56L7.04-14.56Q6.84-15.36 6.84-17.48L6.84-17.48Q6.84-18.12 6.84-18.82Q6.84-19.52 6.86-20.40Q6.88-21.28 6.98-22.42Q7.08-23.56 7.28-25.16L7.28-25.16Q7.32-25.44 7.84-25.44L7.84-25.44Q8.60-25.44 8.70-25.04Q8.80-24.64 8.80-23.72L8.80-23.72Q8.80-23.12 8.76-22.32Q8.72-21.52 8.64-20.48L8.64-20.48Q8.68-19.20 8.68-17.14Q8.68-15.08 8.68-12.24Z"/></g>
</svg>
</g></svg></svg>