<svg version="1.1" preserveAspectRatio="none" xmlns="http://www.w3.org/2000/svg" width="500" height="500" viewBox="0 0 500 500"><rect width="100%" height="100%" fill="#FFFFFF" fill-opacity="1"/><svg viewBox="86.3085 151.7813 341.165 184" width="333" height="179.59638298184163" x="83.5px" y="160.2018px" xmlns="http://www.w3.org/2000/svg" xmlns:xlink="http://www.w3.org/1999/xlink" preserveAspectRatio="none"><defs></defs><style>.companyName {fill:#0C0C0C;fill-opacity:1;}.icon3 {fill:#0C0C0C;fill-opacity:1;}.icon3-str {stroke:#0C0C0C;stroke-opacity:1;}.text {fill:#0C0C0C;fill-opacity:1;}</style><g opacity="1" transform="rotate(0 165.06 161.7813)">
<svg width="214.7097" height="120" x="165.06" y="161.7813" version="1.1" preserveAspectRatio="none" viewBox="3.92 -22.84 98.47999999999999 55.040000000000006">
  <g transform="matrix(1 0 0 1 0 0)" class="companyName"><path id="id-D6z1nYkh8" d="M16.76-2.80L17.24-2.80Q18.56-2.12 18.56-0.84L18.56-0.84Q18.56 0 18.14 0.36Q17.72 0.72 16.94 0.86Q16.16 1 15 1.02Q13.84 1.04 12.40 1.12L12.40 1.12Q11.92 0.96 8.88 0.80L8.88 0.80Q8.44 0.84 8.04 0.86Q7.64 0.88 7.28 0.88L7.28 0.88Q5.12 0.88 4.32 0.24L4.32 0.24Q4.12-1.36 4.02-2.72Q3.92-4.08 3.92-5.20L3.92-5.20Q3.92-6.96 4.06-8.26Q4.20-9.56 4.20-10.60L4.20-10.60Q4.20-11.88 4.08-12.60L4.08-12.60L4.32-16.80Q4.48-18.32 4.70-19.40Q4.92-20.48 5.24-21.04L5.24-21.04Q5.48-21.36 7.64-21.84L7.64-21.84L10.20-22.40Q10.44-22.44 11.20-22.52Q11.96-22.60 12.78-22.68Q13.60-22.76 14.24-22.80Q14.88-22.84 14.84-22.84L14.84-22.84L15-22.84Q15.44-22.84 15.90-22.24Q16.36-21.64 16.36-20.84L16.36-20.84Q16.36-20.44 16.34-20.12Q16.32-19.80 16.08-19.58Q15.84-19.36 15.28-19.24Q14.72-19.12 13.64-19.08L13.64-19.08Q11.88-19 11.24-18.72L11.24-18.72L11.04-18.72Q10-18.72 8.44-18.24L8.44-18.24Q8.28-18.04 8.20-17.54Q8.12-17.04 8.08-16.50Q8.04-15.96 8.02-15.58Q8-15.20 8-15.32L8-15.32Q7.96-15.12 7.94-14.92Q7.92-14.72 7.92-14.40L7.92-14.40Q7.92-14.12 7.94-13.78Q7.96-13.44 8-13.04L8-13.04Q9.24-13.16 10.02-13.30Q10.80-13.44 11.24-13.44L11.24-13.44Q12.08-13.44 12.88-13.48Q13.68-13.52 14.30-13.38Q14.92-13.24 15.28-12.82Q15.64-12.40 15.64-11.48L15.64-11.48Q15.64-10.44 14.98-10.12Q14.32-9.80 12.68-9.76L12.68-9.76Q10.76-9.68 10.36-9.60L10.36-9.60Q10.12-9.60 9.86-9.62Q9.60-9.64 9.28-9.64L9.28-9.64Q9.08-9.64 8.82-9.66Q8.56-9.68 8.32-9.66Q8.08-9.64 7.90-9.50Q7.72-9.36 7.72-9L7.72-9Q7.72-8.76 7.74-8.38Q7.76-8 7.76-7.68L7.76-7.68Q7.76-7.20 7.74-6.72Q7.72-6.24 7.70-5.70Q7.68-5.16 7.66-4.48Q7.64-3.80 7.64-2.88L7.64-2.88Q7.88-2.84 8.58-2.80Q9.28-2.76 10.06-2.72Q10.84-2.68 11.56-2.62Q12.28-2.56 12.52-2.52L12.52-2.52Q12.56-2.52 13.08-2.56Q13.60-2.60 14.60-2.68L14.60-2.68Q15.96-2.80 16.76-2.80L16.76-2.80Z M38.68-1.44L38.68-1.44Q38.68-0.72 38.04-0.10Q37.40 0.52 36.76 0.52L36.76 0.52Q36.44 0.52 36.24 0.32L36.24 0.32Q36.20 0.32 35.88-0.08Q35.56-0.48 35.12-1.08Q34.68-1.68 34.16-2.36Q33.64-3.04 33.20-3.64Q32.76-4.24 32.50-4.62Q32.24-5 32.28-4.96L32.28-4.96Q32.20-5.20 31.88-5.72Q31.56-6.24 31.18-6.82Q30.80-7.40 30.48-7.90Q30.16-8.40 30.12-8.52L30.12-8.52Q30.04-8.52 29.68-8.46Q29.32-8.40 28.88-8.34Q28.44-8.28 27.98-8.22Q27.52-8.16 27.28-8.16L27.28-8.16L27.08-8.16Q26.96-6.92 26.88-6.12Q26.80-5.32 26.80-4.92L26.80-4.92L26.80-3.68Q26.80-1.52 26.44 1L26.44 1Q25.96 1.72 25.04 1.72L25.04 1.72Q24.24 1.72 23.66 1.30Q23.08 0.88 23.08-0.16L23.08-0.16Q23.08-0.48 23.10-0.94Q23.12-1.40 23.14-1.88Q23.16-2.36 23.18-2.74Q23.20-3.12 23.20-3.24L23.20-3.24L23.20-3.44L23.48-9.48Q23.52-10 23.50-10.76Q23.48-11.52 23.56-12.52L23.56-12.52L23.88-14.92Q24.12-16.16 24.12-17.04L24.12-17.04Q24.12-17.32 24.10-17.58Q24.08-17.84 24.04-18.12L24.04-18.12Q24.04-18.12 24.16-19.52L24.16-19.52Q24.20-20.48 24.52-21.08Q24.84-21.68 26.04-21.68L26.04-21.68Q26.88-21.68 27.72-21.40L27.72-21.40Q28.52-21.48 29.14-21.48Q29.76-21.48 30.20-21.48L30.20-21.48Q30.60-21.48 30.92-21.46Q31.24-21.44 31.56-21.38Q31.88-21.32 32.28-21.22Q32.68-21.12 33.24-20.96L33.24-20.96L35-19.76Q36.48-18.60 36.98-17.44Q37.48-16.28 37.48-15L37.48-15Q37.48-14.12 37.42-13.50Q37.36-12.88 37-12.28Q36.64-11.68 35.88-11.04Q35.12-10.40 33.72-9.44L33.72-9.44Q34.64-8.28 35.80-6L35.80-6Q36.52-5.44 38.68-1.44ZM33.76-14.20L33.76-14.20Q33.80-14.36 33.80-14.64L33.80-14.64Q33.80-15.04 33.72-15.46Q33.64-15.88 33.36-16.30Q33.08-16.72 32.54-17.14Q32-17.56 31.04-17.96L31.04-17.96Q30.20-18.28 29.64-18.28L29.64-18.28Q29.48-18.24 29.20-18.20L29.20-18.20Q28.96-18.12 28.60-18.06Q28.24-18 27.80-17.92L27.80-17.92Q27.84-17.68 27.84-17.46Q27.84-17.24 27.78-16.64Q27.72-16.04 27.60-14.92Q27.48-13.80 27.32-11.80L27.32-11.80Q27.48-11.76 27.64-11.76Q27.80-11.76 27.96-11.76L27.96-11.76Q28.72-11.76 29.66-11.98Q30.60-12.20 31.44-12.54Q32.28-12.88 32.92-13.32Q33.56-13.76 33.76-14.20Z M59.20-1.44L59.20-1.44Q59.20-0.72 58.56-0.10Q57.92 0.52 57.28 0.52L57.28 0.52Q56.96 0.52 56.76 0.32L56.76 0.32Q56.72 0.32 56.40-0.08Q56.08-0.48 55.64-1.08Q55.20-1.68 54.68-2.36Q54.16-3.04 53.72-3.64Q53.28-4.24 53.02-4.62Q52.76-5 52.80-4.96L52.80-4.96Q52.72-5.20 52.40-5.72Q52.08-6.24 51.70-6.82Q51.32-7.40 51.00-7.90Q50.68-8.40 50.64-8.52L50.64-8.52Q50.56-8.52 50.20-8.46Q49.84-8.40 49.40-8.34Q48.96-8.28 48.50-8.22Q48.04-8.16 47.80-8.16L47.80-8.16L47.60-8.16Q47.48-6.92 47.40-6.12Q47.32-5.32 47.32-4.92L47.32-4.92L47.32-3.68Q47.32-1.52 46.96 1L46.96 1Q46.48 1.72 45.56 1.72L45.56 1.72Q44.76 1.72 44.18 1.30Q43.60 0.88 43.60-0.16L43.60-0.16Q43.60-0.48 43.62-0.94Q43.64-1.40 43.66-1.88Q43.68-2.36 43.70-2.74Q43.72-3.12 43.72-3.24L43.72-3.24L43.72-3.44L44.00-9.48Q44.04-10 44.02-10.76Q44.00-11.52 44.08-12.52L44.08-12.52L44.40-14.92Q44.64-16.16 44.64-17.04L44.64-17.04Q44.64-17.32 44.62-17.58Q44.60-17.84 44.56-18.12L44.56-18.12Q44.56-18.12 44.68-19.52L44.68-19.52Q44.72-20.48 45.04-21.08Q45.36-21.68 46.56-21.68L46.56-21.68Q47.40-21.68 48.24-21.40L48.24-21.40Q49.04-21.48 49.66-21.48Q50.28-21.48 50.72-21.48L50.72-21.48Q51.12-21.48 51.44-21.46Q51.76-21.44 52.08-21.38Q52.40-21.32 52.80-21.22Q53.20-21.12 53.76-20.96L53.76-20.96L55.52-19.76Q57-18.60 57.50-17.44Q58-16.28 58-15L58-15Q58-14.12 57.94-13.50Q57.88-12.88 57.52-12.28Q57.16-11.68 56.40-11.04Q55.64-10.40 54.24-9.44L54.24-9.44Q55.16-8.28 56.32-6L56.32-6Q57.04-5.44 59.20-1.44ZM54.28-14.20L54.28-14.20Q54.32-14.36 54.32-14.64L54.32-14.64Q54.32-15.04 54.24-15.46Q54.16-15.88 53.88-16.30Q53.60-16.72 53.06-17.14Q52.52-17.56 51.56-17.96L51.56-17.96Q50.72-18.28 50.16-18.28L50.16-18.28Q50.00-18.24 49.72-18.20L49.72-18.20Q49.48-18.12 49.12-18.06Q48.76-18 48.32-17.92L48.32-17.92Q48.36-17.68 48.36-17.46Q48.36-17.24 48.30-16.64Q48.24-16.04 48.12-14.92Q48.00-13.80 47.84-11.80L47.84-11.80Q48.00-11.76 48.16-11.76Q48.32-11.76 48.48-11.76L48.48-11.76Q49.24-11.76 50.18-11.98Q51.12-12.20 51.96-12.54Q52.80-12.88 53.44-13.32Q54.08-13.76 54.28-14.20Z M81.12-10.64L81.04-7.84Q80.52-5.76 78.08-3.04L78.08-3.04Q77.76-2.92 77.26-2.56Q76.76-2.20 75.98-1.82Q75.20-1.44 74.08-1.16Q72.96-0.88 71.44-0.88L71.44-0.88Q68.40-0.88 66.36-2.50Q64.32-4.12 63.20-7.60L63.20-7.60Q63.16-7.88 63.16-8.16Q63.16-8.44 63.16-8.76L63.16-8.76Q63.16-11.24 63.68-13.14Q64.20-15.04 65.08-16.44Q65.96-17.84 67.10-18.80Q68.24-19.76 69.48-20.36L69.48-20.36Q71.52-20.92 73.48-20.92L73.48-20.92Q74.88-20.92 76.24-20.20Q77.60-19.48 78.66-18.16Q79.72-16.84 80.38-14.94Q81.04-13.04 81.12-10.64L81.12-10.64ZM77.36-7.96L77.36-7.96Q77.64-9.60 77.64-10.52L77.64-10.52Q77.64-12.04 77.20-13.32Q76.76-14.60 76.16-15.54Q75.56-16.48 74.90-17.02Q74.24-17.56 73.80-17.56L73.80-17.56Q71.68-17.56 70.34-16.62Q69.00-15.68 68.24-14.36Q67.48-13.04 67.20-11.60Q66.92-10.16 66.92-9.16L66.92-9.16Q66.92-8.24 67.22-7.38Q67.52-6.52 68.10-5.86Q68.68-5.20 69.48-4.80Q70.28-4.40 71.32-4.40L71.32-4.40Q73.76-4.40 75.16-5.30Q76.56-6.20 77.36-7.96Z M102.40-1.44L102.40-1.44Q102.40-0.72 101.76-0.10Q101.12 0.52 100.48 0.52L100.48 0.52Q100.16 0.52 99.96 0.32L99.96 0.32Q99.92 0.32 99.60-0.08Q99.28-0.48 98.84-1.08Q98.40-1.68 97.88-2.36Q97.36-3.04 96.92-3.64Q96.48-4.24 96.22-4.62Q95.96-5 96-4.96L96-4.96Q95.92-5.20 95.60-5.72Q95.28-6.24 94.90-6.82Q94.52-7.40 94.20-7.90Q93.88-8.40 93.84-8.52L93.84-8.52Q93.76-8.52 93.40-8.46Q93.04-8.40 92.60-8.34Q92.16-8.28 91.70-8.22Q91.24-8.16 91-8.16L91-8.16L90.80-8.16Q90.68-6.92 90.60-6.12Q90.52-5.32 90.52-4.92L90.52-4.92L90.52-3.68Q90.52-1.52 90.16 1L90.16 1Q89.68 1.72 88.76 1.72L88.76 1.72Q87.96 1.72 87.38 1.30Q86.80 0.88 86.80-0.16L86.80-0.16Q86.80-0.48 86.82-0.94Q86.84-1.40 86.86-1.88Q86.88-2.36 86.90-2.74Q86.92-3.12 86.92-3.24L86.92-3.24L86.92-3.44L87.20-9.48Q87.24-10 87.22-10.76Q87.20-11.52 87.28-12.52L87.28-12.52L87.60-14.92Q87.84-16.16 87.84-17.04L87.84-17.04Q87.84-17.32 87.82-17.58Q87.80-17.84 87.76-18.12L87.76-18.12Q87.76-18.12 87.88-19.52L87.88-19.52Q87.92-20.48 88.24-21.08Q88.56-21.68 89.76-21.68L89.76-21.68Q90.60-21.68 91.44-21.40L91.44-21.40Q92.24-21.48 92.86-21.48Q93.48-21.48 93.92-21.48L93.92-21.48Q94.32-21.48 94.64-21.46Q94.96-21.44 95.28-21.38Q95.60-21.32 96-21.22Q96.40-21.12 96.96-20.96L96.96-20.96L98.72-19.76Q100.20-18.60 100.70-17.44Q101.20-16.28 101.20-15L101.20-15Q101.20-14.12 101.14-13.50Q101.08-12.88 100.72-12.28Q100.36-11.68 99.60-11.04Q98.84-10.40 97.44-9.44L97.44-9.44Q98.36-8.28 99.52-6L99.52-6Q100.24-5.44 102.40-1.44ZM97.48-14.20L97.48-14.20Q97.52-14.36 97.52-14.64L97.52-14.64Q97.52-15.04 97.44-15.46Q97.36-15.88 97.08-16.30Q96.80-16.72 96.26-17.14Q95.72-17.56 94.76-17.96L94.76-17.96Q93.92-18.28 93.36-18.28L93.36-18.28Q93.20-18.24 92.92-18.20L92.92-18.20Q92.68-18.12 92.32-18.06Q91.96-18 91.52-17.92L91.52-17.92Q91.56-17.68 91.56-17.46Q91.56-17.24 91.50-16.64Q91.44-16.04 91.32-14.92Q91.20-13.80 91.04-11.80L91.04-11.80Q91.20-11.76 91.36-11.76Q91.52-11.76 91.68-11.76L91.68-11.76Q92.44-11.76 93.38-11.98Q94.32-12.20 95.16-12.54Q96-12.88 96.64-13.32Q97.28-13.76 97.48-14.20Z M21.52 22.88L21.52 22.88Q21.44 22.92 17.68 23.04L17.68 23.04Q17.48 24.88 17.22 26.24Q16.96 27.60 16.64 28.52L16.64 28.52Q16.24 28.92 15.36 28.92L15.36 28.92Q13.72 28.92 13.44 28.08L13.44 28.08Q13.44 26.52 14.08 23.20L14.08 23.20Q12.64 23.20 12.08 23.18Q11.52 23.16 11.18 23.16Q10.84 23.16 10.34 23.14Q9.84 23.12 8.52 23.12L8.52 23.12Q8.08 23.12 7.42 22.98Q6.76 22.84 6.10 22.62Q5.44 22.40 4.86 22.16Q4.28 21.92 4.04 21.68L4.04 21.68Q3.92 21.32 3.92 20.84L3.92 20.84Q3.92 19.60 4.68 17.96L4.68 17.96Q5.44 16.96 6.72 13.64L6.72 13.64L10.04 8.52Q10.44 8.16 11.12 8.16L11.12 8.16Q12.80 8.16 12.80 9.56L12.80 9.56Q12.80 9.60 12.60 10.08Q12.40 10.56 12.02 11.36Q11.64 12.16 11.08 13.18Q10.52 14.20 9.80 15.28L9.80 15.28L7.84 19.84Q7.96 19.96 8.20 19.96L8.20 19.96Q8.52 19.96 8.68 19.86Q8.84 19.76 8.84 19.80L8.84 19.80Q9.04 19.76 9.26 19.74Q9.48 19.72 9.72 19.72L9.72 19.72Q10.16 19.72 10.66 19.78Q11.16 19.84 11.76 19.92L11.76 19.92Q12.88 19.92 14.40 19.80L14.40 19.80L14.64 16.72Q14.60 16.36 14.58 16Q14.56 15.64 14.56 15.28L14.56 15.28Q14.56 14.40 14.70 13.60Q14.84 12.80 14.84 11.88L14.84 11.88Q14.84 11.64 14.80 11.02Q14.76 10.40 14.70 9.72Q14.64 9.04 14.60 8.48Q14.56 7.92 14.56 7.84L14.56 7.84Q14.96 6.84 15.92 6.84L15.92 6.84Q16.08 6.88 16.24 6.88L16.24 6.88Q16.40 6.92 16.64 6.92Q16.88 6.92 17.20 6.96L17.20 6.96Q17.32 7.12 17.50 7.70Q17.68 8.28 17.84 9.02Q18 9.76 18.12 10.54Q18.24 11.32 18.24 11.88L18.24 11.88Q18.24 12.48 18.20 13.28Q18.16 14.08 18.12 15.36L18.12 15.36Q18.16 15.52 18.16 16.12L18.16 16.12Q18.16 16.68 18.12 17.56Q18.08 18.44 18 19.64L18 19.64L18.40 19.64Q18.96 19.64 19.66 19.70Q20.36 19.76 21.28 19.84L21.28 19.84Q22.12 20.08 22.12 21.40L22.12 21.40Q22.12 22.36 21.52 22.88Z M42.60 16.60L42.60 16.60Q42.52 17.48 42.20 18.62Q41.88 19.76 41.46 20.90Q41.04 22.04 40.54 23.04Q40.04 24.04 39.56 24.64L39.56 24.64L37.20 26.28Q35.68 27.12 34.08 27.12L34.08 27.12Q32.44 27.12 31.06 26.26Q29.68 25.40 28.66 23.98Q27.64 22.56 27.06 20.78Q26.48 19 26.48 17.12L26.48 17.12Q26.48 14.96 27.38 13.12Q28.28 11.28 30.44 9.48L30.44 9.48Q31.48 8.60 32.44 8.16Q33.40 7.72 34.22 7.54Q35.04 7.36 35.68 7.34Q36.32 7.32 36.76 7.32L36.76 7.32Q38.28 7.32 39.32 7.80Q40.36 8.28 41.04 9.36Q41.72 10.44 42.08 12.22Q42.44 14 42.60 16.60ZM38.56 18.88L38.56 18.88Q39.08 17.44 39.08 15.76L39.08 15.76Q39.08 14.88 38.92 13.98Q38.76 13.08 38.44 12.36Q38.12 11.64 37.62 11.18Q37.12 10.72 36.48 10.72L36.48 10.72Q35.36 10.72 34.22 11.12Q33.08 11.52 32.18 12.30Q31.28 13.08 30.72 14.26Q30.16 15.44 30.16 17L30.16 17Q30.20 17.48 30.22 18.04Q30.24 18.60 30.40 19.24L30.40 19.24L30.80 20.88Q32.28 23.56 34.16 23.56L34.16 23.56Q35.52 23.56 36.66 22.30Q37.80 21.04 38.56 18.88Z M61.84 24.68L61.84 24.68Q61.60 25.28 61.26 25.84Q60.92 26.40 60.36 27.02Q59.80 27.64 58.92 28.40Q58.04 29.16 56.68 30.20L56.68 30.20Q53.12 32.20 51.60 32.20L51.60 32.20Q50.80 32.20 50.74 31.76Q50.68 31.32 50.68 30.56L50.68 30.56Q50.68 29.92 51.08 29.48Q51.48 29.04 52.12 28.64Q52.76 28.24 53.60 27.84Q54.44 27.44 55.36 26.88L55.36 26.88Q55.56 26.84 55.94 26.56Q56.32 26.28 56.84 25.68L56.84 25.68L58.32 23.92Q59.08 22.68 59.08 21.60L59.08 21.60Q59.08 20.60 58.62 19.82Q58.16 19.04 57.48 18.52Q56.80 18 56.02 17.74Q55.24 17.48 54.60 17.48L54.60 17.48Q54.16 17.48 53.74 17.58Q53.32 17.68 52.88 17.68L52.88 17.68Q52.64 17.68 52.18 17.60Q51.72 17.52 51.28 17.32Q50.84 17.12 50.50 16.80Q50.16 16.48 50.16 16L50.16 16Q50.16 15.68 50.20 15.52L50.20 15.52L50.32 14.44Q50.32 14 50.46 13.12Q50.60 12.24 50.76 11.36Q50.92 10.48 51.06 9.84Q51.20 9.20 51.20 9.24L51.20 9.24Q51.20 7.44 51.50 6.76Q51.80 6.08 52.48 6.08L52.48 6.08Q53.40 6.08 54.32 6.36Q55.24 6.64 55.84 6.64L55.84 6.64Q55.96 6.64 56.02 6.62Q56.08 6.60 56.20 6.60L56.20 6.60Q56.28 6.60 57 6.68Q57.72 6.76 58.56 6.84Q59.40 6.92 60.06 7Q60.72 7.08 60.72 7.08L60.72 7.08Q61.80 7.32 61.80 8.84L61.80 8.84Q61.80 10.44 60.48 10.48L60.48 10.48Q60.04 10.40 59.28 10.38Q58.52 10.36 57.48 10.32L57.48 10.32Q57.12 10.32 56.34 10.18Q55.56 10.04 55.20 10.04L55.20 10.04Q54.84 10.04 54.60 10.16L54.60 10.16Q54.44 10.84 54.24 11.78Q54.04 12.72 53.84 13.88L53.84 13.88Q54.72 13.88 55.78 14Q56.84 14.12 57.92 14.58Q59 15.04 60 15.96Q61 16.88 61.80 18.44L61.80 18.44Q62.64 20.20 62.64 21.48L62.64 21.48Q62.64 22.64 61.84 24.68Z"/></g>
</svg>
</g><g opacity="1" transform="rotate(0 86.3085 309.7813)">
<svg width="341.165" height="26" x="86.3085" y="309.7813" version="1.1" preserveAspectRatio="none" viewBox="3.16 -23.12 323.4 24.64">
  <g transform="matrix(1 0 0 1 0 0)" class="text"><path id="id-D-YM9nyY418" d="M25.32-0.40L25.32-0.40Q25.12 0.40 23.96 0.40L23.96 0.40Q23.20 0.40 22.92-0.12L22.92-0.12Q22.68-1.40 22.50-2.84Q22.32-4.28 22.24-5.96L22.24-5.96Q22.24-6.56 22.18-7.20Q22.12-7.84 22-8.78Q21.88-9.72 21.72-11.14Q21.56-12.56 21.40-14.76L21.40-14.76L19.96-12.72Q19.36-11.88 18.68-11.18Q18-10.48 17.32-9.80L17.32-9.80Q16.68-8.60 14.72-6.88L14.72-6.88Q14.64-6.88 14.62-6.86Q14.60-6.84 14.52-6.84L14.52-6.84Q13.60-6.84 12.96-7.40Q12.32-7.96 11.62-9.08Q10.92-10.20 9.98-11.88Q9.04-13.56 7.52-15.80L7.52-15.80Q7.52-15.76 7.44-15.24Q7.36-14.72 7.24-13.92Q7.12-13.12 7-12.18Q6.88-11.24 6.74-10.32Q6.60-9.40 6.50-8.64Q6.40-7.88 6.36-7.48L6.36-7.48L6.36-6.84Q6.40-6.24 6.32-5.44Q6.24-4.64 6.16-3.64L6.16-3.64L5.76 0.48Q5.68 1.28 4.48 1.28L4.48 1.28Q3.64 1.28 3.40 0.92Q3.16 0.56 3.16-0.48L3.16-0.48Q3.16-1.64 3.20-2.32Q3.24-3 3.28-3.36Q3.32-3.72 3.38-3.88Q3.44-4.04 3.48-4.20Q3.52-4.36 3.58-4.62Q3.64-4.88 3.64-5.44L3.64-5.44Q3.68-6.72 3.70-7.22Q3.72-7.72 3.74-8Q3.76-8.28 3.84-8.66Q3.92-9.04 4.08-10.08L4.08-10.08Q4.20-10.76 4.24-11.24Q4.28-11.72 4.28-12L4.28-12L4.28-12.28Q4.32-13.08 4.40-13.90Q4.48-14.72 4.60-15.66Q4.72-16.60 4.90-17.74Q5.08-18.88 5.40-20.32L5.40-20.32Q5.80-20.72 6.80-20.72L6.80-20.72Q7.32-20.72 7.60-20.56L7.60-20.56Q8.32-19.56 9-18.60Q9.68-17.64 10.46-16.44Q11.24-15.24 12.12-13.72Q13-12.20 14.08-10.12L14.08-10.12L15.48-11.48Q16.56-12.56 16.88-13.28L16.88-13.28Q16.96-13.36 17.62-14.24Q18.28-15.12 19.52-16.84L19.52-16.84L21.24-19.04Q21.52-19.20 21.88-19.20L21.88-19.20Q22.72-19.20 23.40-18.60L23.40-18.60Q24.12-15.64 24.12-14.12L24.12-14.12L24.12-13.72Q24.12-13.52 24.20-12.74Q24.28-11.96 24.40-11.04Q24.52-10.12 24.64-9.28Q24.76-8.44 24.84-8.16L24.84-8.16Q24.84-7.04 24.96-5.74Q25.08-4.44 25.28-2.96L25.28-2.96Q25.36-2.48 25.40-2.06Q25.44-1.64 25.44-1.32L25.44-1.32Q25.44-0.76 25.32-0.40Z M45.16-1.60L45.16-1.60Q43.88-0.32 42.16 0.60Q40.44 1.52 38.64 1.52L38.64 1.52Q37.88 1.52 35.16 0.96L35.16 0.96Q34.44 0.48 33.64-0.24Q32.84-0.96 32.18-1.90Q31.52-2.84 31.10-3.90Q30.68-4.96 30.68-6.12L30.68-6.12L30.68-6.08Q30.72-6.44 30.76-6.92L30.76-6.92Q30.80-7.36 30.84-7.94Q30.88-8.52 30.96-9.32L30.96-9.32Q31.76-10.60 32.62-11.84Q33.48-13.08 35.16-14.04L35.16-14.04Q37.72-14.64 39-14.64L39-14.64Q39.60-14.64 40.06-14.58Q40.52-14.52 40.94-14.30Q41.36-14.08 41.78-13.72Q42.20-13.36 42.80-12.76L42.80-12.76Q43.24-12.28 43.48-12.06Q43.72-11.84 43.84-11.72Q43.96-11.60 43.96-11.52Q43.96-11.44 43.96-11.28L43.96-11.28Q43.96-9.84 43.66-8.96Q43.36-8.08 42.54-7.52Q41.72-6.96 40.28-6.54Q38.84-6.12 36.56-5.60L36.56-5.60L36.32-5.60Q35.60-5.60 33.76-5.28L33.76-5.28Q35.20-1.04 38.36-1.04L38.36-1.04Q40.60-1.04 43.44-3.32L43.44-3.32Q43.72-3.56 44.16-3.56L44.16-3.56Q45.40-3.56 45.40-2.36L45.40-2.36Q45.40-1.96 45.16-1.60ZM41.32-10.56L41.32-10.56Q40.24-12.36 38.88-12.36L38.88-12.36Q38.28-12.36 37.60-12.20Q36.92-12.04 36.30-11.76Q35.68-11.48 35.14-11.08Q34.60-10.68 34.24-10.16L34.24-10.16Q34.08-9.84 33.94-9.24Q33.80-8.64 33.60-7.80L33.60-7.80Q34.68-8 35.98-8.08Q37.28-8.16 38.46-8.40Q39.64-8.64 40.44-9.12Q41.24-9.60 41.32-10.56Z M60.36-14.76L60.36-14.76Q60.68-14.52 60.68-13.84L60.68-13.84Q60.68-12.64 59.68-12.64L59.68-12.64L59.52-12.64Q59.52-12.64 58.94-12.58Q58.36-12.52 57.64-12.44Q56.92-12.36 56.26-12.26Q55.60-12.16 55.48-12.08L55.48-12.08L55.48-11.68Q55.48-11.24 55.40-10.50Q55.32-9.76 55.32-9.16L55.32-9.16Q55.32-8.96 55.34-8.76Q55.36-8.56 55.40-8.36L55.40-8.36Q55.24-7.88 55.24-6.76L55.24-6.76Q55.28-5.24 55.32-4.50Q55.36-3.76 55.56-3.40Q55.76-3.04 56.24-2.84Q56.72-2.64 57.64-2.24L57.64-2.24Q58.60-1.92 58.60-1.12L58.60-1.12Q58.60-0.60 58.22-0.24Q57.84 0.12 57.24 0.12L57.24 0.12Q56.96 0.12 56.40 0Q55.84-0.12 55.26-0.34Q54.68-0.56 54.20-0.86Q53.72-1.16 53.56-1.52L53.56-1.52Q53.08-2.56 52.80-3.54Q52.52-4.52 52.52-5.60L52.52-5.60Q52.52-6.72 52.56-7.28Q52.60-7.84 52.64-8.16Q52.68-8.48 52.72-8.74Q52.76-9 52.76-9.48L52.76-9.48Q52.76-9.80 52.74-10.14Q52.72-10.48 52.72-10.80L52.72-10.80Q52.72-11.24 52.74-11.54Q52.76-11.84 52.80-12.04L52.80-12.04Q51.72-11.96 49.60-11.40L49.60-11.40Q48.96-11.40 48.48-11.72Q48-12.04 48-12.64L48-12.64Q48-12.80 48.12-13.08Q48.24-13.36 48.54-13.62Q48.84-13.88 49.38-14.06Q49.92-14.24 50.72-14.24L50.72-14.24L50.96-14.24Q51.84-14.24 53-14.60L53-14.60Q53-14.64 53.02-14.94Q53.04-15.24 53.06-15.62Q53.08-16 53.10-16.36Q53.12-16.72 53.12-16.88L53.12-16.88L53.12-17.08Q53.16-17.52 53.28-18.34Q53.40-19.16 53.64-19.98Q53.88-20.80 54.26-21.40Q54.64-22 55.20-22L55.20-22Q56.28-22 56.52-21.04L56.52-21.04Q56.52-20.96 56.42-20.48Q56.32-20 56.20-19.40Q56.08-18.80 55.96-18.24Q55.84-17.68 55.84-17.52L55.84-17.52Q55.84-17.44 55.80-17.08Q55.76-16.72 55.74-16.28Q55.72-15.84 55.68-15.40Q55.64-14.96 55.64-14.76L55.64-14.76Q55.56-14.76 56.72-14.88L56.72-14.88Q56.92-14.88 57.10-14.90Q57.28-14.92 57.44-14.92L57.44-14.92Q57.56-14.92 57.64-14.90Q57.72-14.88 57.80-14.88L57.80-14.88Q58.16-14.92 58.48-14.94Q58.80-14.96 59.08-14.96L59.08-14.96Q59.96-14.96 60.36-14.76Z M77.76-1.28L77.76-1.28Q77.60-0.84 77.14-0.44Q76.68-0.04 76.24-0.04L76.24-0.04Q75.72-0.04 75.44-0.46Q75.16-0.88 75.04-1.54Q74.92-2.20 74.88-3.04Q74.84-3.88 74.84-4.72L74.84-4.72Q74.68-5.12 74.68-5.76L74.68-5.76Q74.68-6.04 74.70-6.38Q74.72-6.72 74.72-6.96L74.72-6.96Q74.72-8.36 74.48-9.22Q74.24-10.08 73.86-10.56Q73.48-11.04 73.04-11.20Q72.60-11.36 72.20-11.36L72.20-11.36Q71.48-11.36 70.74-11.08Q70-10.80 69.38-10.44Q68.76-10.08 68.34-9.70Q67.92-9.32 67.80-9.12L67.80-9.12Q67.68-8.68 67.62-7.86Q67.56-7.04 67.52-5.96Q67.48-4.88 67.44-3.62Q67.40-2.36 67.36-1.04L67.36-1.04Q67.24-0.28 66.12-0.28L66.12-0.28Q65.20-0.28 64.92-0.94Q64.64-1.60 64.64-3.20L64.64-3.20Q64.64-3.60 64.66-3.76Q64.68-3.92 64.74-4.32Q64.80-4.72 64.88-5.58Q64.96-6.44 65.08-8.32L65.08-8.32Q65.12-9.20 65.16-9.88Q65.20-10.56 65.16-11.08L65.16-11.08Q65.16-11.52 65.16-11.80Q65.16-12.08 65.12-12.28L65.12-12.28Q65.16-12.32 65.20-12.98Q65.24-13.64 65.32-14.44Q65.40-15.24 65.48-15.98Q65.56-16.72 65.68-17L65.68-17Q65.68-17.20 65.66-17.36Q65.64-17.52 65.64-17.72L65.64-17.72Q65.64-18.36 65.70-19.30Q65.76-20.24 65.96-21.08Q66.16-21.92 66.56-22.52Q66.96-23.12 67.68-23.12L67.68-23.12Q68.84-23.12 68.88-21.88L68.88-21.88Q68.80-20.72 68.60-19.20Q68.40-17.68 68.08-15.20L68.08-15.20Q67.88-14.60 67.88-13L67.88-13L67.88-12.28Q67.96-12.32 68.24-12.52Q68.52-12.72 68.90-12.98Q69.28-13.24 69.72-13.46Q70.16-13.68 70.56-13.76L70.56-13.76Q71.48-13.92 72.48-13.92L72.48-13.92Q74.40-13.92 75.54-12.82Q76.68-11.72 77.20-9.16L77.20-9.16Q77.24-8.20 77.30-7.60Q77.36-7 77.42-6.26Q77.48-5.52 77.58-4.40Q77.68-3.28 77.76-1.28Z M93.96-0.92L93.96-0.92Q93.20-0.40 89.92 0.28L89.92 0.28L88.24-0.04Q87.92-0.16 87.10-0.64Q86.28-1.12 85.42-2.04Q84.56-2.96 83.90-4.36Q83.24-5.76 83.24-7.68L83.24-7.68Q83.24-9.24 84.12-10.46Q85.00-11.68 86.80-13.08L86.80-13.08Q87.76-13.32 88.68-13.32L88.68-13.32Q91.36-13.32 93.60-11.52L93.60-11.52Q95.52-8.88 95.52-5.72L95.52-5.72Q95.52-3.24 93.96-0.92ZM90.32-10.68L90.32-10.68Q89.72-10.96 89.04-10.96L89.04-10.96Q88.56-10.96 88.02-10.72Q87.48-10.48 87.02-10Q86.56-9.52 86.28-8.78Q86.00-8.04 86.00-7.04L86.00-7.04Q86.00-6.24 86.22-5.44Q86.44-4.64 86.90-3.96Q87.36-3.28 88.08-2.86Q88.80-2.44 89.80-2.44L89.80-2.44Q90.72-2.44 91.88-2.92L91.88-2.92Q92.88-4.16 92.88-5.88L92.88-5.88Q92.88-9.68 90.32-10.68Z M113.72-19.96L113.72-19.96Q113.64-19.76 113.60-19.32Q113.56-18.88 113.56-18.20L113.56-18.20Q113.56-16.48 113.60-15.44Q113.64-14.40 113.64-14.16L113.64-14.16L113.52-13.48Q113.64-13.16 113.64-12.72L113.64-12.72Q113.64-12.60 113.60-12.26Q113.56-11.92 113.52-11.50Q113.48-11.08 113.44-10.64Q113.40-10.20 113.40-9.92L113.40-9.92Q113.40-9.84 113.42-9.76Q113.44-9.68 113.44-9.60L113.44-9.60Q113.24-8.68 113-6.40Q112.76-4.12 112.48-1.24L112.48-1.24Q112.16-0.28 111-0.28L111-0.28Q110.28-0.28 110.12-0.50Q109.96-0.72 109.72-1.28L109.72-1.28Q108.48-0.48 105.96-0.48L105.96-0.48Q104.60-0.48 103.52-0.96Q102.44-1.44 101.66-2.24Q100.88-3.04 100.46-4.14Q100.04-5.24 100.04-6.52L100.04-6.52Q100.04-7.28 100.22-8.02Q100.40-8.76 100.68-9.38Q100.96-10 101.30-10.52Q101.64-11.04 101.96-11.36L101.96-11.36Q102.76-12.20 104.30-12.92Q105.84-13.64 107.56-13.64L107.56-13.64Q109.16-13.64 110.72-12.88L110.72-12.88L110.72-13.52Q110.72-14.36 110.78-15.28Q110.84-16.20 110.92-17.28L110.92-17.28L110.76-20Q110.76-20.28 110.74-20.52Q110.72-20.76 110.72-21L110.72-21Q110.72-22.04 110.98-22.58Q111.24-23.12 112.08-23.12L112.08-23.12Q112.60-23.12 112.90-22.96Q113.20-22.80 113.34-22.42Q113.48-22.04 113.54-21.44Q113.60-20.84 113.72-19.96ZM110.48-10.12L110.48-10.12Q109.48-11.08 107.44-11.08L107.44-11.08Q106.48-11.08 105.82-10.92Q105.16-10.76 104.68-10.38Q104.20-10 103.86-9.42Q103.52-8.84 103.16-8L103.16-8Q102.88-7.28 102.88-6.44L102.88-6.44Q102.88-4.84 104.06-3.90Q105.24-2.96 106.84-2.96L106.84-2.96Q108.36-2.96 109.72-4.08L109.72-4.08Q109.92-4.84 110.18-5.92Q110.44-7 110.44-8.12L110.44-8.12Q110.44-8.36 110.42-8.66Q110.40-8.96 110.40-9.20L110.40-9.20Q110.40-9.52 110.42-9.74Q110.44-9.96 110.48-10.12Z M154.36-8.80L154.36-8.80L154.36-8.24Q154.36-7.08 154.24-4.52L154.24-4.52Q154.24-4.36 154.26-4.22Q154.28-4.08 154.28-3.96L154.28-3.96Q154.28-3.60 154.20-3.10Q154.12-2.60 153.96-2.16Q153.80-1.72 153.54-1.40Q153.28-1.08 152.92-1.08L152.92-1.08Q152.20-1.08 151.64-1.64L151.64-1.64Q151.64-2.28 148.44-6.08L148.44-6.08L147.60-7.68Q147.36-8.12 147-8.58Q146.64-9.04 146.28-9.48L146.28-9.48Q146.08-9.64 145.66-10.24Q145.24-10.84 144.82-11.52Q144.40-12.20 144.06-12.76Q143.72-13.32 143.72-13.32L143.72-13.32Q142.76-14.28 140.80-17.16L140.80-17.16Q140.80-16.20 140.74-15.40Q140.68-14.60 140.60-13.56Q140.52-12.52 140.36-11.08Q140.20-9.64 140.04-7.40L140.04-7.40L140.04-7.20Q140.04-6.88 139.90-6.20Q139.76-5.52 139.58-4.82Q139.40-4.12 139.24-3.58Q139.08-3.04 139.08-2.96L139.08-2.96Q138.68-1.96 137.64-1.96L137.64-1.96Q136.68-1.96 136.52-3.16L136.52-3.16L137.40-8.64Q137.48-10.20 137.88-13.60L137.88-13.60Q137.96-13.96 138.02-14.90Q138.08-15.84 138.18-16.88Q138.28-17.92 138.40-18.88Q138.52-19.84 138.68-20.28L138.68-20.28Q139.40-21.16 140.68-21.16L140.68-21.16Q141.20-20.96 142.12-19.60L142.12-19.60L143.44-17.60Q144-16.92 144.96-15.76Q145.92-14.60 147.20-12.92L147.20-12.92Q148.64-11 149.66-9.38Q150.68-7.76 151.44-6.48L151.44-6.48Q151.56-6.84 151.64-7.76Q151.72-8.68 151.72-10L151.72-10Q151.72-10.56 151.70-10.96Q151.68-11.36 151.64-11.56L151.64-11.56Q151.68-11.60 151.68-11.88L151.68-11.88Q151.68-12 151.62-12.50Q151.56-13 151.46-13.60Q151.36-14.20 151.30-14.72Q151.24-15.24 151.24-15.44L151.24-15.44Q151.24-15.68 151.32-15.92L151.32-15.92Q151.24-16.96 151.12-18.22Q151-19.48 150.80-21L150.80-21Q151.08-22.56 152.12-22.56L152.12-22.56Q153.08-22.56 153.56-21.56L153.56-21.56Q153.60-20.36 153.72-19.18Q153.84-18 153.96-16.56Q154.08-15.12 154.20-13.24Q154.32-11.36 154.36-8.80Z M171-0.92L171-0.92Q170.24-0.40 166.96 0.28L166.96 0.28L165.28-0.04Q164.96-0.16 164.14-0.64Q163.32-1.12 162.46-2.04Q161.60-2.96 160.94-4.36Q160.28-5.76 160.28-7.68L160.28-7.68Q160.28-9.24 161.16-10.46Q162.04-11.68 163.84-13.08L163.84-13.08Q164.80-13.32 165.72-13.32L165.72-13.32Q168.40-13.32 170.64-11.52L170.64-11.52Q172.56-8.88 172.56-5.72L172.56-5.72Q172.56-3.24 171-0.92ZM167.36-10.68L167.36-10.68Q166.76-10.96 166.08-10.96L166.08-10.96Q165.60-10.96 165.06-10.72Q164.52-10.48 164.06-10Q163.60-9.52 163.32-8.78Q163.04-8.04 163.04-7.04L163.04-7.04Q163.04-6.24 163.26-5.44Q163.48-4.64 163.94-3.96Q164.40-3.28 165.12-2.86Q165.84-2.44 166.84-2.44L166.84-2.44Q167.76-2.44 168.92-2.92L168.92-2.92Q169.92-4.16 169.92-5.88L169.92-5.88Q169.92-9.68 167.36-10.68Z M187.64-14.76L187.64-14.76Q187.96-14.52 187.96-13.84L187.96-13.84Q187.96-12.64 186.96-12.64L186.96-12.64L186.80-12.64Q186.80-12.64 186.22-12.58Q185.64-12.52 184.92-12.44Q184.20-12.36 183.54-12.26Q182.88-12.16 182.76-12.08L182.76-12.08L182.76-11.68Q182.76-11.24 182.68-10.50Q182.60-9.76 182.60-9.16L182.60-9.16Q182.60-8.96 182.62-8.76Q182.64-8.56 182.68-8.36L182.68-8.36Q182.52-7.88 182.52-6.76L182.52-6.76Q182.56-5.24 182.60-4.50Q182.64-3.76 182.84-3.40Q183.04-3.04 183.52-2.84Q184-2.64 184.92-2.24L184.92-2.24Q185.88-1.92 185.88-1.12L185.88-1.12Q185.88-0.60 185.50-0.24Q185.12 0.12 184.52 0.12L184.52 0.12Q184.24 0.12 183.68 0Q183.12-0.12 182.54-0.34Q181.96-0.56 181.48-0.86Q181-1.16 180.84-1.52L180.84-1.52Q180.36-2.56 180.08-3.54Q179.80-4.52 179.80-5.60L179.80-5.60Q179.80-6.72 179.84-7.28Q179.88-7.84 179.92-8.16Q179.96-8.48 180-8.74Q180.04-9 180.04-9.48L180.04-9.48Q180.04-9.80 180.02-10.14Q180-10.48 180-10.80L180-10.80Q180-11.24 180.02-11.54Q180.04-11.84 180.08-12.04L180.08-12.04Q179-11.96 176.88-11.40L176.88-11.40Q176.24-11.40 175.76-11.72Q175.28-12.04 175.28-12.64L175.28-12.64Q175.28-12.80 175.40-13.08Q175.52-13.36 175.82-13.62Q176.12-13.88 176.66-14.06Q177.20-14.24 178-14.24L178-14.24L178.24-14.24Q179.12-14.24 180.28-14.60L180.28-14.60Q180.28-14.64 180.30-14.94Q180.32-15.24 180.34-15.62Q180.36-16 180.38-16.36Q180.40-16.72 180.40-16.88L180.40-16.88L180.40-17.08Q180.44-17.52 180.56-18.34Q180.68-19.16 180.92-19.98Q181.16-20.80 181.54-21.40Q181.92-22 182.48-22L182.48-22Q183.56-22 183.80-21.04L183.80-21.04Q183.80-20.96 183.70-20.48Q183.60-20 183.48-19.40Q183.36-18.80 183.24-18.24Q183.12-17.68 183.12-17.52L183.12-17.52Q183.12-17.44 183.08-17.08Q183.04-16.72 183.02-16.28Q183-15.84 182.96-15.40Q182.92-14.96 182.92-14.76L182.92-14.76Q182.84-14.76 184-14.88L184-14.88Q184.20-14.88 184.38-14.90Q184.56-14.92 184.72-14.92L184.72-14.92Q184.84-14.92 184.92-14.90Q185-14.88 185.08-14.88L185.08-14.88Q185.44-14.92 185.76-14.94Q186.08-14.96 186.36-14.96L186.36-14.96Q187.24-14.96 187.64-14.76Z M225.36 0.60L225.36 0.60Q225.20 1.12 224.36 1.12L224.36 1.12Q223.56 1.12 223.20 0.76L223.20 0.76L221.80-3.20L221.32-5.12Q221.12-5.80 220.84-6.26Q220.56-6.72 220.32-6.92L220.32-6.92L217.40-6.80Q215.28-6.72 213.52-6.32Q211.76-5.92 211.08-5.48L211.08-5.48Q210.88-4.40 210.56-3.12Q210.24-1.84 209.84-0.36L209.84-0.36Q209.60 0.20 208.60 0.20L208.60 0.20Q207.60 0.20 207.60-0.44L207.60-0.44Q207.60-0.72 207.70-1.26Q207.80-1.80 207.96-2.44Q208.12-3.08 208.30-3.78Q208.48-4.48 208.64-5.12L208.64-5.12Q208.60-5.28 208.60-5.44Q208.60-5.60 208.60-5.76L208.60-5.76Q208.60-6.16 208.74-6.90Q208.88-7.64 209.06-8.38Q209.24-9.12 209.38-9.70Q209.52-10.28 209.52-10.40L209.52-10.40L210.88-14.04Q211-14.64 211.36-15.58Q211.72-16.52 212.12-17.46Q212.52-18.40 212.90-19.24Q213.28-20.08 213.40-20.52L213.40-20.52Q213.68-21.48 214.84-21.48L214.84-21.48Q215.76-21.48 216.08-20.80L216.08-20.80Q216.04-20.88 216.32-20.44Q216.60-20 217.02-19.26Q217.44-18.52 217.94-17.66Q218.44-16.80 218.88-15.98Q219.32-15.16 219.62-14.56Q219.92-13.96 219.92-13.80L219.92-13.80Q220.04-13.60 220.34-13Q220.64-12.40 220.98-11.70Q221.32-11 221.62-10.38Q221.92-9.76 222.08-9.60L222.08-9.60Q222.48-9.08 222.84-8.20Q223.20-7.32 223.46-6.44Q223.72-5.56 223.94-4.82Q224.16-4.08 224.32-3.84L224.32-3.84Q224.32-3.56 224.50-3Q224.68-2.44 224.90-1.82Q225.12-1.20 225.28-0.66Q225.44-0.12 225.44 0.12L225.44 0.12Q225.44 0.28 225.36 0.60ZM219.24-9.28L219.24-9.28L218.36-11.88Q217.96-13.04 217.28-13.84L217.28-13.84Q216.92-14.64 216.38-15.68Q215.84-16.72 215.12-17.96L215.12-17.96Q214.08-16.32 213.20-12.96L213.20-12.96Q212.28-11.08 211.68-8.40L211.68-8.40Q211.76-8.40 212.14-8.48Q212.52-8.56 212.96-8.64Q213.40-8.72 213.82-8.80Q214.24-8.88 214.44-8.88L214.44-8.88Q214.72-8.88 215.04-8.80L215.04-8.80Q215.40-8.88 215.92-8.92Q216.44-8.96 217.02-9Q217.60-9.04 218.18-9.10Q218.76-9.16 219.24-9.28Z M234.68-21.32L234.68-21.32Q234.64-20.88 234.52-20.24Q234.40-19.60 234.24-18.94Q234.08-18.28 233.94-17.68Q233.80-17.08 233.72-16.72L233.72-16.72Q233.76-16.52 233.76-16.36Q233.76-16.20 233.76-16L233.76-16Q233.76-15.68 233.68-15.16Q233.60-14.64 233.48-14.08Q233.36-13.52 233.28-13.02Q233.20-12.52 233.20-12.24L233.20-12.24Q233.20-11.84 233.22-11.08Q233.24-10.32 233.24-9.42Q233.24-8.52 233.16-7.56Q233.08-6.60 232.88-5.84L232.88-5.84Q232.92-5.36 232.92-4.88Q232.92-4.40 233.02-3.86Q233.12-3.32 233.38-2.68Q233.64-2.04 234.24-1.32L234.24-1.32Q234.12-0.88 233.50-0.50Q232.88-0.12 232.24-0.12L232.24-0.12Q231.40-0.12 230.86-1.06Q230.32-2 230.32-4.52L230.32-4.52Q230.32-4.96 230.38-5.30Q230.44-5.64 230.44-6.12L230.44-6.12Q230.44-7.12 230.20-8.52L230.20-8.52Q230.36-8.92 230.46-9.64Q230.56-10.36 230.60-11.06Q230.64-11.76 230.66-12.26Q230.68-12.76 230.68-12.72L230.68-12.72Q230.68-12.76 230.78-13.36Q230.88-13.96 231-14.80Q231.12-15.64 231.22-16.50Q231.32-17.36 231.32-17.88L231.32-17.88L231.32-18.20Q231.44-18.92 231.60-19.80Q231.76-20.68 231.96-21.72L231.96-21.72Q232.32-22.32 233.16-22.32L233.16-22.32Q234.20-22.32 234.68-21.32Z M245.56-21.32L245.56-21.32Q245.52-20.88 245.40-20.24Q245.28-19.60 245.12-18.94Q244.96-18.28 244.82-17.68Q244.68-17.08 244.60-16.72L244.60-16.72Q244.64-16.52 244.64-16.36Q244.64-16.20 244.64-16L244.64-16Q244.64-15.68 244.56-15.16Q244.48-14.64 244.36-14.08Q244.24-13.52 244.16-13.02Q244.08-12.52 244.08-12.24L244.08-12.24Q244.08-11.84 244.10-11.08Q244.12-10.32 244.12-9.42Q244.12-8.52 244.04-7.56Q243.96-6.60 243.76-5.84L243.76-5.84Q243.80-5.36 243.80-4.88Q243.80-4.40 243.90-3.86Q244-3.32 244.26-2.68Q244.52-2.04 245.12-1.32L245.12-1.32Q245-0.88 244.38-0.50Q243.76-0.12 243.12-0.12L243.12-0.12Q242.28-0.12 241.74-1.06Q241.20-2 241.20-4.52L241.20-4.52Q241.20-4.96 241.26-5.30Q241.32-5.64 241.32-6.12L241.32-6.12Q241.32-7.12 241.08-8.52L241.08-8.52Q241.24-8.92 241.34-9.64Q241.44-10.36 241.48-11.06Q241.52-11.76 241.54-12.26Q241.56-12.76 241.56-12.72L241.56-12.72Q241.56-12.76 241.66-13.36Q241.76-13.96 241.88-14.80Q242-15.64 242.10-16.50Q242.20-17.36 242.20-17.88L242.20-17.88L242.20-18.20Q242.32-18.92 242.48-19.80Q242.64-20.68 242.84-21.72L242.84-21.72Q243.20-22.32 244.04-22.32L244.04-22.32Q245.08-22.32 245.56-21.32Z M261.76-0.92L261.76-0.92Q261-0.40 257.72 0.28L257.72 0.28L256.04-0.04Q255.72-0.16 254.90-0.64Q254.08-1.12 253.22-2.04Q252.36-2.96 251.70-4.36Q251.04-5.76 251.04-7.68L251.04-7.68Q251.04-9.24 251.92-10.46Q252.80-11.68 254.60-13.08L254.60-13.08Q255.56-13.32 256.48-13.32L256.48-13.32Q259.16-13.32 261.40-11.52L261.40-11.52Q263.32-8.88 263.32-5.72L263.32-5.72Q263.32-3.24 261.76-0.92ZM258.12-10.68L258.12-10.68Q257.52-10.96 256.84-10.96L256.84-10.96Q256.36-10.96 255.82-10.72Q255.28-10.48 254.82-10Q254.36-9.52 254.08-8.78Q253.80-8.04 253.80-7.04L253.80-7.04Q253.80-6.24 254.02-5.44Q254.24-4.64 254.70-3.96Q255.16-3.28 255.88-2.86Q256.60-2.44 257.60-2.44L257.60-2.44Q258.52-2.44 259.68-2.92L259.68-2.92Q260.68-4.16 260.68-5.88L260.68-5.88Q260.68-9.68 258.12-10.68Z M290.44-14.56L290.44-14.56Q290.40-14.32 290.24-13.70Q290.08-13.08 289.86-12.40Q289.64-11.72 289.46-11.08Q289.28-10.44 289.24-10.08L289.24-10.08Q288.92-9.28 288.58-8.40Q288.24-7.52 287.84-6.48L287.84-6.48Q287.84-6.36 287.56-5.66Q287.28-4.96 286.90-4.08Q286.52-3.20 286.14-2.38Q285.76-1.56 285.56-1.24L285.56-1.24Q284.48 0 283.20 0.32L283.20 0.32Q282.04-0.32 280.68-3.40L280.68-3.40Q280.44-3.96 279.96-5.30Q279.48-6.64 278.80-8.80L278.80-8.80Q277.92-7.04 277.10-5.60Q276.28-4.16 275.56-3.12Q274.84-2.08 274.20-1.48Q273.56-0.88 273.08-0.84L273.08-0.84Q272.56-1.16 271.88-2.08L271.88-2.08L270.68-3.68Q270.52-4.04 270.26-4.72Q270-5.40 269.72-6.14Q269.44-6.88 269.18-7.52Q268.92-8.16 268.76-8.48L268.76-8.48Q268.64-8.76 268.44-9.42Q268.24-10.08 268.06-10.82Q267.88-11.56 267.76-12.22Q267.64-12.88 267.64-13.20L267.64-13.20Q267.64-13.80 267.98-14.12Q268.32-14.44 268.84-14.44L268.84-14.44Q269.84-14.44 270.28-13.76L270.28-13.76L270.64-11.80Q270.88-10.52 271.28-9.76L271.28-9.76Q272.40-5.72 273.36-4.52L273.36-4.52Q273.48-4.64 273.76-5.12Q274.04-5.60 274.34-6.14Q274.64-6.68 274.90-7.16Q275.16-7.64 275.24-7.72L275.24-7.72Q275.72-8.12 276.32-9.40L276.32-9.40L277.04-10.92Q278.32-12.92 279.60-13.24L279.60-13.24Q279.68-13.16 279.88-12.72Q280.08-12.28 280.28-11.74Q280.48-11.20 280.70-10.74Q280.92-10.28 281.04-10.16L281.04-10.16Q281.52-9.04 281.96-7.30Q282.40-5.56 283.60-3L283.60-3Q284.24-4 284.50-4.68Q284.76-5.36 284.94-5.98Q285.12-6.60 285.30-7.36Q285.48-8.12 285.92-9.32L285.92-9.32Q286.36-10.52 286.54-11.06Q286.72-11.60 286.84-12.04Q286.96-12.48 287.14-13.10Q287.32-13.72 287.76-15.04L287.76-15.04Q288.36-15.92 289.08-15.92L289.08-15.92Q290.04-15.92 290.44-14.56Z M308.24-1.60L308.24-1.60Q306.96-0.32 305.24 0.60Q303.52 1.52 301.72 1.52L301.72 1.52Q300.96 1.52 298.24 0.96L298.24 0.96Q297.52 0.48 296.72-0.24Q295.92-0.96 295.26-1.90Q294.60-2.84 294.18-3.90Q293.76-4.96 293.76-6.12L293.76-6.12L293.76-6.08Q293.80-6.44 293.84-6.92L293.84-6.92Q293.88-7.36 293.92-7.94Q293.96-8.52 294.04-9.32L294.04-9.32Q294.84-10.60 295.70-11.84Q296.56-13.08 298.24-14.04L298.24-14.04Q300.80-14.64 302.08-14.64L302.08-14.64Q302.68-14.64 303.14-14.58Q303.60-14.52 304.02-14.30Q304.44-14.08 304.86-13.72Q305.28-13.36 305.88-12.76L305.88-12.76Q306.32-12.28 306.56-12.06Q306.80-11.84 306.92-11.72Q307.04-11.60 307.04-11.52Q307.04-11.44 307.04-11.28L307.04-11.28Q307.04-9.84 306.74-8.96Q306.44-8.08 305.62-7.52Q304.80-6.96 303.36-6.54Q301.92-6.12 299.64-5.60L299.64-5.60L299.40-5.60Q298.68-5.60 296.84-5.28L296.84-5.28Q298.28-1.04 301.44-1.04L301.44-1.04Q303.68-1.04 306.52-3.32L306.52-3.32Q306.80-3.56 307.24-3.56L307.24-3.56Q308.48-3.56 308.48-2.36L308.48-2.36Q308.48-1.96 308.24-1.60ZM304.40-10.56L304.40-10.56Q303.32-12.36 301.96-12.36L301.96-12.36Q301.36-12.36 300.68-12.20Q300-12.04 299.38-11.76Q298.76-11.48 298.22-11.08Q297.68-10.68 297.32-10.16L297.32-10.16Q297.16-9.84 297.02-9.24Q296.88-8.64 296.68-7.80L296.68-7.80Q297.76-8 299.06-8.08Q300.36-8.16 301.54-8.40Q302.72-8.64 303.52-9.12Q304.32-9.60 304.40-10.56Z M326.56-19.96L326.56-19.96Q326.48-19.76 326.44-19.32Q326.40-18.88 326.40-18.20L326.40-18.20Q326.40-16.48 326.44-15.44Q326.48-14.40 326.48-14.16L326.48-14.16L326.36-13.48Q326.48-13.16 326.48-12.72L326.48-12.72Q326.48-12.60 326.44-12.26Q326.40-11.92 326.36-11.50Q326.32-11.08 326.28-10.64Q326.24-10.20 326.24-9.92L326.24-9.92Q326.24-9.84 326.26-9.76Q326.28-9.68 326.28-9.60L326.28-9.60Q326.08-8.68 325.84-6.40Q325.60-4.12 325.32-1.24L325.32-1.24Q325-0.28 323.84-0.28L323.84-0.28Q323.12-0.28 322.96-0.50Q322.80-0.72 322.56-1.28L322.56-1.28Q321.32-0.48 318.80-0.48L318.80-0.48Q317.44-0.48 316.36-0.96Q315.28-1.44 314.50-2.24Q313.72-3.04 313.30-4.14Q312.88-5.24 312.88-6.52L312.88-6.52Q312.88-7.28 313.06-8.02Q313.24-8.76 313.52-9.38Q313.80-10 314.14-10.52Q314.48-11.04 314.80-11.36L314.80-11.36Q315.60-12.20 317.14-12.92Q318.68-13.64 320.40-13.64L320.40-13.64Q322-13.64 323.56-12.88L323.56-12.88L323.56-13.52Q323.56-14.36 323.62-15.28Q323.68-16.20 323.76-17.28L323.76-17.28L323.60-20Q323.60-20.28 323.58-20.52Q323.56-20.76 323.56-21L323.56-21Q323.56-22.04 323.82-22.58Q324.08-23.12 324.92-23.12L324.92-23.12Q325.44-23.12 325.74-22.96Q326.04-22.80 326.18-22.42Q326.32-22.04 326.38-21.44Q326.44-20.84 326.56-19.96ZM323.32-10.12L323.32-10.12Q322.32-11.08 320.28-11.08L320.28-11.08Q319.32-11.08 318.66-10.92Q318-10.76 317.52-10.38Q317.04-10 316.70-9.42Q316.36-8.84 316-8L316-8Q315.72-7.28 315.72-6.44L315.72-6.44Q315.72-4.84 316.90-3.90Q318.08-2.96 319.68-2.96L319.68-2.96Q321.20-2.96 322.56-4.08L322.56-4.08Q322.76-4.84 323.02-5.92Q323.28-7 323.28-8.12L323.28-8.12Q323.28-8.36 323.26-8.66Q323.24-8.96 323.24-9.20L323.24-9.20Q323.24-9.52 323.26-9.74Q323.28-9.96 323.32-10.12Z"/></g>
</svg>
</g><g opacity="1" transform="rotate(0 134.0123 151.7813)">
<svg width="11.0477" height="140" x="134.0123" y="151.7813" version="1.1" preserveAspectRatio="none" viewBox="6.48 -25.44 2.3200000000000003 29.4">
  <g transform="matrix(1 0 0 1 0 0)" class="icon3"><path id="id-lXek8z7fT1" d="M8.68-12.24L8.68-12.24Q8.68-12 8.74-11Q8.80-10 8.80-8.16L8.80-8.16Q8.80-6.80 8.60-6.32L8.60-6.32Q8.68-5.96 8.68-5.58Q8.68-5.20 8.68-4.76L8.68-4.76Q8.68-3.84 8.58-2.86Q8.48-1.88 8.44-0.96L8.44-0.96Q8.48-0.48 8.48-0.02Q8.48 0.44 8.48 0.88L8.48 0.88Q8.48 1.36 8.48 1.90Q8.48 2.44 8.42 2.90Q8.36 3.36 8.18 3.66Q8 3.96 7.64 3.96L7.64 3.96Q7 3.96 6.84 3.72L6.84 3.72Q6.48 2.24 6.48-0.04L6.48-0.04Q6.48-1.40 6.66-3.12Q6.84-4.84 6.84-6.56L6.84-6.56Q6.84-8.08 6.60-9.52L6.60-9.52Q6.60-9.60 6.64-10.30Q6.68-11 6.72-11.88Q6.76-12.76 6.84-13.54Q6.92-14.32 7.04-14.56L7.04-14.56Q6.84-15.36 6.84-17.48L6.84-17.48Q6.84-18.12 6.84-18.82Q6.84-19.52 6.86-20.40Q6.88-21.28 6.98-22.42Q7.08-23.56 7.28-25.16L7.28-25.16Q7.32-25.44 7.84-25.44L7.84-25.44Q8.60-25.44 8.70-25.04Q8.80-24.64 8.80-23.72L8.80-23.72Q8.80-23.12 8.76-22.32Q8.72-21.52 8.64-20.48L8.64-20.48Q8.68-19.20 8.68-17.14Q8.68-15.08 8.68-12.24Z"/></g>
</svg>
</g></svg></svg>